<svg id="Layer_1" data-name="Layer 1" xmlns="http://www.w3.org/2000/svg" xmlns:xlink="http://www.w3.org/1999/xlink" viewBox="0 0 500 500"><defs><style>.cls-1{fill:url(#linear-gradient);}.cls-2{fill:none;}.cls-3{fill:#e9eced;}.cls-4{fill:url(#linear-gradient-2);}.cls-5{fill:#bac0c4;}.cls-6{opacity:0.5;}.cls-7{clip-path:url(#clip-path);}.cls-8{fill:#2c3e50;}.cls-9{fill:#e44c3b;}.cls-10{fill:#9c9c9b;}.cls-11{fill:#e97f88;}.cls-12{clip-path:url(#clip-path-2);}.cls-13{mask:url(#mask);}.cls-14{fill:url(#linear-gradient-3);}.cls-15{fill:#35495e;}.cls-16{opacity:0.1;}.cls-17{clip-path:url(#clip-path-3);}.cls-18{fill:#7f898a;}.cls-19{fill:#92a2a2;}.cls-20{fill:#be3a2b;}</style><linearGradient id="linear-gradient" x1="-324.2" y1="165.57" x2="-320.12" y2="165.57" gradientTransform="matrix(0, -53.8, -53.8, 0, 9150.09, -17083.36)" gradientUnits="userSpaceOnUse"><stop offset="0"/><stop offset="0.22"/><stop offset="1" stop-color="#fff"/></linearGradient><linearGradient id="linear-gradient-2" x1="4.96" y1="250.28" x2="494.96" y2="250.28" gradientUnits="userSpaceOnUse"><stop offset="0" stop-color="#70cbda"/><stop offset="1" stop-color="#3f7cbd"/></linearGradient><clipPath id="clip-path"><rect id="SVGID" class="cls-2" x="193.31" y="222.24" width="236.09" height="160.62"/></clipPath><clipPath id="clip-path-2"><path id="SVGID-2" data-name="SVGID" class="cls-2" d="M141.93,261.2c-.17-.16-.32-.34-.48-.51l71.74,129.9L344.86,258.91l-129.28-71.4a335,335,0,0,0-73.65,73.69"/></clipPath><mask id="mask" x="39.91" y="85.8" width="406.49" height="406.49" maskUnits="userSpaceOnUse"><rect class="cls-1" x="99.44" y="145.33" width="287.43" height="287.43" transform="translate(-133.17 256.6) rotate(-45)"/></mask><linearGradient id="linear-gradient-3" x1="-324.2" y1="165.57" x2="-320.12" y2="165.57" gradientTransform="matrix(0, -53.8, -53.8, 0, 9150.09, -17083.36)" gradientUnits="userSpaceOnUse"><stop offset="0" stop-color="#fff"/><stop offset="0.22" stop-color="#fff"/><stop offset="1" stop-color="#edc11b"/></linearGradient><clipPath id="clip-path-3"><rect id="SVGID-3" data-name="SVGID" class="cls-2" x="302.43" y="230.64" width="123.9" height="119.32"/></clipPath></defs><title>lifestyle</title><path class="cls-3" d="M210.55,379.78c-6.26,0-11.38-4.13-11.38-9.18v-9.17h25.24V219.16h211.1v127.9a208,208,0,0,0,23.79-96.78c0-115.48-93.72-209.1-209.34-209.1S40.63,134.8,40.63,250.28c0,2.42.1,4.81.18,7.22a20.87,20.87,0,1,1,2.79,27.73,207.32,207.32,0,0,0,24.15,67.93c9.47-4.7,21.6-7.51,34.81-7.51,30.36,0,55,14.85,55,33.16H84.92a209.33,209.33,0,0,0,329.33,1Z"/><path class="cls-4" d="M250,495.28c-135.09,0-245-109.91-245-245s109.91-245,245-245,245,109.9,245,245-109.9,245-245,245m0-462C130.34,33.32,33,130.65,33,250.28s97.33,217,217,217,217-97.33,217-216.95-97.32-217-216.95-217"/><path class="cls-5" d="M74.91,365.18h0A209.63,209.63,0,0,0,425,364.92"/><g class="cls-6"><g class="cls-7"><path class="cls-8" d="M221.93,222.89V365.15l-28.63-.65v9.18c0,5,5.12,9.18,11.36,9.18h203.5c2.94-3.74,5.79-7.55,8.49-11.48h-.33c-.37,0-.67-1-.67-2.29v-2.3h4l1.47-2.29q4.39-7,8.26-14.37V222.24Z"/></g></g><rect class="cls-9" x="45.42" y="214.39" width="90.6" height="8.53" transform="translate(-134 144.2) rotate(-49.13)"/><rect class="cls-9" x="49.21" y="228.61" width="90.6" height="8.53" transform="translate(-143.44 151.98) rotate(-49.13)"/><rect class="cls-9" x="72.48" y="274.69" width="8.53" height="90.6" transform="translate(-149.82 81.35) rotate(-30.03)"/><rect class="cls-9" x="87.15" y="275.77" width="8.53" height="90.6" transform="translate(-148.39 88.83) rotate(-30.03)"/><path class="cls-8" d="M63.47,269.83a5.93,5.93,0,1,1-5.92-5.92,5.93,5.93,0,0,1,5.92,5.92"/><path class="cls-9" d="M156.31,171.54l-6.82-6.82c-8.1-8.1-22.19-8.18-30.84.46s-8.57,22.75-.48,30.85l6.83,6.83c-5,20.13,2.09,44.6,16.89,59.4a334.63,334.63,0,0,1,73.82-73.83c-14.81-14.8-39.26-21.94-59.4-16.89"/><path class="cls-10" d="M216.41,188c1.48,1.48-14,19.33-34.51,39.87s-38.39,36-39.87,34.52,14-19.34,34.51-39.87,38.39-36,39.87-34.52"/><path class="cls-11" d="M145.78,218.91a36.42,36.42,0,0,1-10.54-27.65c-6.38-1.68-13.26-5.64-19.31-11.57a19.59,19.59,0,0,0,5.55,14.5l6.27,6.28c-4.64,18.53,1.93,41,15.55,54.66a308.48,308.48,0,0,1,21.45-26.26,36,36,0,0,1-19-10"/><path class="cls-11" d="M210.86,187.48l.37-.28c-.15-.14-.31-.27-.45-.41,0,.23.06.46.08.69"/><path class="cls-8" d="M240.75,219.17a16.38,16.38,0,0,0-16.34,16.33V345.09a16.38,16.38,0,0,0,16.34,16.34H410.91c9,0,17.61-2.13,19.18-4.73s5.42-17,5.42-26V235.5a16.38,16.38,0,0,0-16.33-16.33Z"/><g class="cls-12"><g class="cls-13"><rect class="cls-14" x="99.44" y="145.33" width="287.43" height="287.43" transform="translate(-133.17 256.6) rotate(-45)"/></g></g><path class="cls-15" d="M199.17,361.43v9.18c0,5,5.12,9.17,11.38,9.17h203.7c2.95-3.73,5.8-7.54,8.49-11.47h-.32c-.37,0-.68-1-.68-2.29v-2.3h4l1.47-2.29H199.17Z"/><rect class="cls-5" x="235.88" y="230.64" width="188.15" height="119.32"/><g class="cls-16"><g class="cls-17"><path class="cls-18" d="M302.43,258.17c0,40,29.3,74.63,72.13,91.78h51.77V230.64H307.25a81.81,81.81,0,0,0-4.82,27.53"/></g></g><path class="cls-19" d="M350.61,366c0,1.26-.69,2.29-1.52,2.29H310.84c-.84,0-1.53-1-1.53-2.29v-2.3h41.3Z"/><path class="cls-9" d="M78.39,269.83A20.79,20.79,0,0,0,40.81,257.5a210.72,210.72,0,0,0,2.79,27.73,20.77,20.77,0,0,0,34.79-15.4"/><path class="cls-9" d="M102.56,345.65c-13.21,0-25.34,2.81-34.81,7.51.26.46.53.93.81,1.4A64.35,64.35,0,0,1,90,348.27a49.63,49.63,0,0,0-15.17,16.51q4.75,7.23,10.08,14h72.61c0-18.31-24.61-33.16-55-33.16"/><path class="cls-20" d="M90,348.27a64.65,64.65,0,0,0-21.46,6.29q3,5.2,6.29,10.22A49.53,49.53,0,0,1,90,348.27"/><path class="cls-18" d="M421.74,366c0,1.26.31,2.29.68,2.29h.32c1-1.51,2-3.05,3-4.59h-4Z"/></svg>