<svg id="Layer_1" data-name="Layer 1" xmlns="http://www.w3.org/2000/svg" xmlns:xlink="http://www.w3.org/1999/xlink" viewBox="0 0 500 500"><defs><style>.cls-1{fill:none;}.cls-2{fill:url(#linear-gradient);}.cls-3{fill:#f5f5f5;}.cls-4{fill:#bac0c4;}.cls-5{fill:#ef9a20;}.cls-6{opacity:0.2;}.cls-7{clip-path:url(#clip-path);}.cls-8{fill:#221f1f;}.cls-9{fill:#20b798;}.cls-10{fill:#e44c3b;}.cls-11{fill:#642240;}.cls-12{clip-path:url(#clip-path-2);}.cls-13{clip-path:url(#clip-path-3);}.cls-14{clip-path:url(#clip-path-4);}.cls-15{clip-path:url(#clip-path-5);}.cls-16{clip-path:url(#clip-path-6);}.cls-17{clip-path:url(#clip-path-7);}.cls-18{fill:#edc11b;}</style><linearGradient id="linear-gradient" x1="5" y1="250" x2="495" y2="250" gradientUnits="userSpaceOnUse"><stop offset="0" stop-color="#70cbda"/><stop offset="1" stop-color="#3f7cbd"/></linearGradient><clipPath id="clip-path"><rect id="SVGID" class="cls-1" x="159.48" y="145.33" width="142.03" height="152.64"/></clipPath><clipPath id="clip-path-2"><rect id="SVGID-2" data-name="SVGID" class="cls-1" x="243.43" y="152.96" width="160.27" height="175.53"/></clipPath><clipPath id="clip-path-3"><rect id="SVGID-3" data-name="SVGID" class="cls-1" x="128.95" y="130.06" width="30.53" height="290.01"/></clipPath><clipPath id="clip-path-4"><rect id="SVGID-4" data-name="SVGID" class="cls-1" x="121.32" y="114.8" width="45.79" height="45.79"/></clipPath><clipPath id="clip-path-5"><rect id="SVGID-5" data-name="SVGID" class="cls-1" x="170.63" y="288.09" width="188.55" height="131.99"/></clipPath><clipPath id="clip-path-6"><rect id="SVGID-6" data-name="SVGID" class="cls-1" x="170.63" y="288.09" width="188.55" height="42.42"/></clipPath><clipPath id="clip-path-7"><rect id="SVGID-7" data-name="SVGID" class="cls-1" x="227.19" y="306.94" width="75.42" height="51.85"/></clipPath></defs><title>mindset</title><path class="cls-2" d="M250,495C114.91,495,5,385.09,5,250S114.91,5,250,5,495,114.9,495,250,385.09,495,250,495m0-462C130.37,33,33,130.37,33,250s97.33,217,217,217S467,369.62,467,250,369.63,33,250,33"/><path class="cls-3" d="M459.33,250c0,115.47-93.72,209.09-209.33,209.09S40.67,365.47,40.67,250,134.39,40.9,250,40.9,459.33,134.52,459.33,250"/><path class="cls-4" d="M75,364.9h0a209.63,209.63,0,0,0,350.09-.26"/><path class="cls-5" d="M293.19,358.8H236.62V264.52h56.57Zm0-113.14H236.62a18.86,18.86,0,0,0-18.86,18.86V358.8a18.86,18.86,0,0,0,18.86,18.85h56.57A18.85,18.85,0,0,0,312,358.8V264.52a18.85,18.85,0,0,0-18.85-18.86"/><g class="cls-6"><g class="cls-7"><path class="cls-8" d="M301.51,175.85V148c-.14,6.82-29.8,25-39.49,31.35A22.64,22.64,0,0,1,274,175.85Z"/><path class="cls-8" d="M301.51,148c0-1.64-1.65-2.62-5.74-2.62H159.48V298h91.58V198.75a23.15,23.15,0,0,1,8.14-17.51c3.29-2.77,42.15-25.48,42.31-33.29"/></g></g><path class="cls-9" d="M301.51,160.59v-27.9c-.14,6.82-29.8,25-39.49,31.35A22.64,22.64,0,0,1,274,160.59Z"/><path class="cls-10" d="M301.51,132.69c0-1.64-1.65-2.63-5.74-2.63H159.48V282.7h91.58V183.48A23.15,23.15,0,0,1,259.2,166c3.29-2.78,42.15-25.48,42.31-33.29"/><path class="cls-11" d="M190,197.54c0-.1,0-.19,0-.29s0-.25,0-.37h.07c.36-20.95,17.35-39.62,38.34-39.62,12.13,0,22.83,6.35,29.87,15.67.23-.3.49-.56.72-.86V274.35l-.18.06S193.55,253,190.3,200.84c0-.55-.11-1.07-.13-1.61s-.18-1.07-.18-1.69"/><g class="cls-6"><g class="cls-12"><path class="cls-8" d="M380.81,160.59H301.5V153H266.33a22.89,22.89,0,0,0-22.9,22.89V305.6a22.89,22.89,0,0,0,22.9,22.89H380.81A22.89,22.89,0,0,0,403.7,305.6V183.48a22.89,22.89,0,0,0-22.89-22.89"/></g></g><path class="cls-10" d="M380.81,160.59H274a22.9,22.9,0,0,0-22.9,22.89V290.33a22.9,22.9,0,0,0,22.9,22.9H380.81a22.89,22.89,0,0,0,22.89-22.9V183.48a22.89,22.89,0,0,0-22.89-22.89"/><g class="cls-6"><g class="cls-13"><path class="cls-8" d="M159.48,404.81a15.27,15.27,0,1,1-30.53,0V145.32a15.27,15.27,0,0,1,30.53,0Z"/></g></g><path class="cls-5" d="M159.48,389.55a15.27,15.27,0,0,1-30.53,0V130.06a15.27,15.27,0,0,1,30.53,0Z"/><g class="cls-6"><g class="cls-14"><path class="cls-8" d="M167.11,137.69a22.9,22.9,0,1,1-22.89-22.89,22.89,22.89,0,0,1,22.89,22.89"/></g></g><path class="cls-5" d="M167.11,122.43a22.9,22.9,0,1,1-22.89-22.9,22.89,22.89,0,0,1,22.89,22.9"/><path class="cls-11" d="M320.05,209c0-.1,0-.2,0-.29s0-.25,0-.38H320c-.36-20.94-17.36-39.61-38.34-39.61-12.14,0-22.84,6.35-29.88,15.67-.22-.3-.48-.56-.72-.86V285.79l.18.06s65.27-21.43,68.52-73.56c0-.55.1-1.07.12-1.62s.19-1.06.19-1.68"/><g class="cls-6"><g class="cls-15"><path class="cls-8" d="M359.18,401.22a18.86,18.86,0,0,1-18.86,18.86H189.48a18.86,18.86,0,0,1-18.85-18.86V306.94a18.85,18.85,0,0,1,18.85-18.85H340.32a18.85,18.85,0,0,1,18.86,18.85Z"/></g></g><path class="cls-5" d="M170.63,321.08v70.71a18.86,18.86,0,0,0,18.85,18.86H340.32a18.86,18.86,0,0,0,18.86-18.86V321.08Z"/><g class="cls-6"><g class="cls-16"><path class="cls-8" d="M359.18,306.94a18.85,18.85,0,0,0-18.86-18.85H189.48a18.85,18.85,0,0,0-18.85,18.85v23.57H359.18Z"/></g></g><g class="cls-6"><g class="cls-17"><rect class="cls-8" x="227.19" y="306.94" width="75.42" height="51.85" rx="18.86" ry="18.86"/></g></g><path class="cls-18" d="M283.76,330.51H246.05V316.37h37.71Zm0-33H246.05a18.85,18.85,0,0,0-18.86,18.85v14.14a18.85,18.85,0,0,0,18.86,18.86h37.71a18.85,18.85,0,0,0,18.85-18.86V316.37a18.85,18.85,0,0,0-18.85-18.85"/><path class="cls-5" d="M359.18,297.52a18.85,18.85,0,0,0-18.86-18.86H189.48a18.85,18.85,0,0,0-18.85,18.86v23.56H359.18Z"/></svg>