<svg id="Layer_1" data-name="Layer 1" xmlns="http://www.w3.org/2000/svg" xmlns:xlink="http://www.w3.org/1999/xlink" viewBox="0 0 500 500"><defs><style>.cls-1{fill:none;}.cls-2{fill:#f5f5f5;}.cls-3{fill:url(#linear-gradient);}.cls-4{opacity:0.2;}.cls-5{clip-path:url(#clip-path);}.cls-6{fill:#221f1f;}.cls-7{fill:#3b94d1;}.cls-8{fill:#ef9a20;}.cls-9{fill:#719cc9;}.cls-10{fill:#35495e;}.cls-11{fill:#2c3f54;}.cls-12{fill:#bac0c4;}</style><linearGradient id="linear-gradient" x1="5" y1="250" x2="495" y2="250" gradientUnits="userSpaceOnUse"><stop offset="0" stop-color="#0d9848"/><stop offset="1" stop-color="#b3d234"/></linearGradient><clipPath id="clip-path"><rect id="SVGID" class="cls-1" x="225.24" y="68.06" width="188.85" height="202.68"/></clipPath></defs><title>Artboard 2</title><path class="cls-2" d="M420.05,128.12a79.44,79.44,0,0,1,1.66,16.1c0,48.46-43.64,87.75-97.48,87.75s-97.49-39.29-97.49-87.75,43.65-87.74,97.49-87.74c1.84,0,3.66.06,5.47.15A208.76,208.76,0,0,0,250,40.9C134.39,40.9,40.67,134.52,40.67,250A209,209,0,0,0,154,435.77c8.32-4.23,27.51-8.33,38-12.9,19.49-8.47,26.05-21.86,27.77-33-11.61-10-21-24.91-26.81-41.13-8.14-8.86-13-18.56-13-26.56a13,13,0,0,1,6.8-12c1.66-39,29.6-70,64-70.23l.31,0c.28,0,.54,0,.81,0,34.59.49,62.56,32.21,63.56,71.72a12.94,12.94,0,0,1,4.65,10.51c0,6.8-3.52,14.83-9.56,22.53-5.87,18.6-16.55,35.86-30,46.66,2.08,10.85,8.88,23.43,27.51,31.53,10.51,4.57,29.71,8.67,38,12.9a208.88,208.88,0,0,0,74-307.65"/><path class="cls-3" d="M250,495C114.91,495,5,385.09,5,250S114.91,5,250,5,495,114.9,495,250,385.09,495,250,495m0-462C130.37,33,33,130.37,33,250s97.33,217,217,217S467,369.62,467,250,369.63,33,250,33"/><g class="cls-4"><g class="cls-5"><path class="cls-6" d="M414.09,154.92c0-48-42.27-86.86-94.43-86.86S225.24,107,225.24,154.92c0,46.18,39.2,83.83,88.64,86.6,3.25,17.62,5.78,29.22,5.78,29.22A221.69,221.69,0,0,0,365.17,231c29.16-14.78,48.92-43.31,48.92-76.1"/></g></g><path class="cls-7" d="M405.59,154.49c0,63.23-82.86,106.5-82.86,106.5s-45.77-177.5,0-177.5,82.86,31.79,82.86,71"/><path class="cls-8" d="M280.52,391.34c13.42-10.8,24.1-28.06,30-46.66,6-7.7,9.56-15.73,9.56-22.52a13,13,0,0,0-4.65-10.53c-1-39.5-29-71.22-63.56-71.71-.27,0-.53,0-.81,0l-.31,0c-34.37.19-62.31,31.24-64,70.23a13,13,0,0,0-6.8,12c0,8,4.84,17.69,13,26.55,5.79,16.22,15.2,31.1,26.81,41.13C218,401,211.46,414.4,192,422.87c-10.51,4.56-29.7,8.67-38,12.89a209.31,209.31,0,0,0,192.1,0c-8.31-4.22-27.51-8.33-38-12.89-18.63-8.09-25.43-20.68-27.51-31.53"/><path class="cls-7" d="M226.74,144.22c0,48.46,43.65,87.74,97.49,87.74s97.48-39.28,97.48-87.74a79.44,79.44,0,0,0-1.66-16.1A209.93,209.93,0,0,0,329.7,56.63c-1.81-.09-3.63-.14-5.47-.14-53.84,0-97.49,39.28-97.49,87.73"/><path class="cls-9" d="M296,155.76a6.41,6.41,0,0,1-6.41-6.41v-18.8a34.62,34.62,0,0,1,63.69-18.79,6.41,6.41,0,0,1-10.76,7,21.8,21.8,0,0,0-40.11,11.82v18.8a6.41,6.41,0,0,1-6.41,6.41"/><path class="cls-10" d="M296,150.64a6.41,6.41,0,0,1-6.41-6.41V125.42a34.62,34.62,0,0,1,63.69-18.79,6.41,6.41,0,1,1-10.76,7,21.8,21.8,0,0,0-40.11,11.82v18.81a6.41,6.41,0,0,1-6.41,6.41"/><path class="cls-10" d="M324.23,146.36a10.22,10.22,0,0,0-5.13,19.09V172a5.13,5.13,0,0,0,10.26,0v-6.55a10.23,10.23,0,0,0-5.13-19.09"/><path class="cls-11" d="M362.69,133.54H285.77a7.69,7.69,0,0,0-7.69,7.69V190a7.69,7.69,0,0,0,7.69,7.69h76.92a7.69,7.69,0,0,0,7.69-7.69V141.23a7.7,7.7,0,0,0-7.69-7.69m-33.33,37v6.55a5.13,5.13,0,0,1-10.26,0v-6.55a10.25,10.25,0,1,1,10.26,0"/><path class="cls-12" d="M362.69,128.42H285.77a7.69,7.69,0,0,0-7.69,7.69v48.71a7.69,7.69,0,0,0,7.69,7.69h76.92a7.69,7.69,0,0,0,7.69-7.69V136.11a7.69,7.69,0,0,0-7.69-7.69m-33.33,37V172a5.13,5.13,0,0,1-10.26,0v-6.55a10.25,10.25,0,1,1,10.26,0"/></svg>