<svg id="Layer_1" data-name="Layer 1" xmlns="http://www.w3.org/2000/svg" xmlns:xlink="http://www.w3.org/1999/xlink" viewBox="0 0 500 500"><defs><style>.cls-1{fill:none;}.cls-2{fill:url(#linear-gradient);}.cls-3{fill:#f5f5f5;}.cls-4{opacity:0.2;}.cls-5{clip-path:url(#clip-path);}.cls-6{fill:#221f1f;}.cls-7{clip-path:url(#clip-path-2);}.cls-8{fill:#e44c3b;}.cls-9{clip-path:url(#clip-path-3);}.cls-10{fill:#ef9a20;}.cls-11{fill:#edc11b;}.cls-12{clip-path:url(#clip-path-4);}.cls-13{fill:#bac0c4;}.cls-14{clip-path:url(#clip-path-5);}.cls-15{clip-path:url(#clip-path-6);}.cls-16{clip-path:url(#clip-path-7);}.cls-17{fill:#35495e;}.cls-18{fill:#e9eced;}.cls-19{fill:#92a2a2;}.cls-20{fill:#be3a2b;}.cls-21{fill:#20b798;}</style><linearGradient id="linear-gradient" x1="10" y1="250" x2="490" y2="250" gradientUnits="userSpaceOnUse"><stop offset="0" stop-color="#0d9848"/><stop offset="1" stop-color="#b3d234"/></linearGradient><clipPath id="clip-path"><rect id="SVGID" class="cls-1" x="163.79" y="173.07" width="124.37" height="62.56"/></clipPath><clipPath id="clip-path-2"><rect id="SVGID-2" data-name="SVGID" class="cls-1" x="147.26" y="86.61" width="131.54" height="57.18"/></clipPath><clipPath id="clip-path-3"><rect id="SVGID-3" data-name="SVGID" class="cls-1" x="107.57" y="145.73" width="129.41" height="46.76"/></clipPath><clipPath id="clip-path-4"><rect id="SVGID-4" data-name="SVGID" class="cls-1" x="187.08" y="98.19" width="199.24" height="108"/></clipPath><clipPath id="clip-path-5"><rect id="SVGID-5" data-name="SVGID" class="cls-1" x="150.25" y="143.06" width="115.5" height="36.71"/></clipPath><clipPath id="clip-path-6"><rect id="SVGID-6" data-name="SVGID" class="cls-1" x="282.09" y="127.86" width="42.58" height="42.58"/></clipPath><clipPath id="clip-path-7"><rect id="SVGID-7" data-name="SVGID" class="cls-1" x="334.67" y="131.14" width="21.29" height="21.29"/></clipPath></defs><title>Artboard 1</title><path class="cls-2" d="M250,490C117.66,490,10,382.34,10,250S117.66,10,250,10,490,117.66,490,250,382.34,490,250,490m0-452.53C132.82,37.47,37.47,132.81,37.47,250S132.82,462.52,250,462.52,462.52,367.18,462.52,250,367.18,37.47,250,37.47"/><path class="cls-3" d="M250,45.17C136.75,45.17,44.94,136.88,44.94,250A204.76,204.76,0,0,0,153.58,430.79V306.89a18.08,18.08,0,0,1,18.08-18.08h24.1a17.92,17.92,0,0,1,8.4,2.16l.32.18a17.1,17.1,0,0,1,2.11,1.34l.2.16a18.34,18.34,0,0,1,3.2,3.21c.16.2.34.38.49.59.3.42.55.87.81,1.32s.57,1,.82,1.5.36.82.52,1.25c.24.65.44,1.31.62,2,.09.36.19.71.26,1.08a17.92,17.92,0,0,1,.33,3.3V258.68a18.07,18.07,0,0,1,18.08-18.08h36.16a18.08,18.08,0,0,1,18.08,18.08v24.11a17.94,17.94,0,0,1,.33-3.31c.07-.37.17-.71.26-1.07.18-.68.38-1.35.62-2,.16-.42.33-.84.52-1.24s.53-1,.82-1.5.51-.9.81-1.33c.15-.21.33-.39.49-.59a18,18,0,0,1,3.2-3.2l.2-.17a19.15,19.15,0,0,1,2.1-1.34l.33-.17a17.8,17.8,0,0,1,8.4-2.16h24.1a18.07,18.07,0,0,1,18.08,18.08v148A204.73,204.73,0,0,0,455.06,250c0-113.12-91.81-204.83-205.06-204.83"/><g class="cls-4"><g class="cls-5"><path class="cls-6" d="M232.38,180.82c-11.53,2-64.84,36.05-64.84,36.05-6.58,3.24-4.93,10.1,8.44,12l49,5.51c26.52,2.77,32.16,2.59,47-19.19l14.33-28c4.91-9.59-.51-15.78-12-13.75Z"/></g></g><g class="cls-4"><g class="cls-7"><path class="cls-6" d="M225.83,143.58c-11.53,2-73.24-11.79-73.24-11.79-7.29-.79-8.07-7.8,3.84-14.16l44.18-21.88c24-11.65,29.35-13.4,50.77,2l23,21.43c7.88,7.34,4.9,15-6.63,17Z"/></g></g><path class="cls-8" d="M238.49,172.11c-11.53,2-64.84,36-64.84,36-6.58,3.23-4.93,10.09,8.44,12l49,5.52c26.52,2.77,32.16,2.58,47-19.19l14.33-28c4.91-9.59-.51-15.77-12-13.75Z"/><path class="cls-8" d="M231.94,134.87c-11.53,2-73.24-11.79-73.24-11.79-7.29-.8-8.07-7.81,3.84-14.16L206.72,87c24-11.65,29.35-13.4,50.77,2l23,21.43c7.88,7.34,4.9,15-6.63,17Z"/><g class="cls-4"><g class="cls-9"><path class="cls-6" d="M185.52,147.08c37.61-6.61,51.46,13.16,51.46,13.16s-6.28,23.31-43.89,29.92-84.68-2.44-85.51-7.18,40.33-29.29,77.94-35.9"/></g></g><path class="cls-10" d="M191.63,138.36c37.61-6.61,51.46,13.17,51.46,13.17s-6.28,23.3-43.89,29.91-84.68-2.43-85.51-7.18c-.81-4.6,40.33-29.29,77.94-35.9"/><path class="cls-11" d="M223.08,132.84c37.61-6.61,51.46,13.16,51.46,13.16s-6.28,23.31-43.89,29.92-84.68-2.44-85.51-7.18,40.33-29.29,77.94-35.9"/><g class="cls-4"><g class="cls-12"><path class="cls-6" d="M290.61,204.72C232.71,214.9,187.08,169,187.08,169s27.26-58.7,85.15-68.87,112,22.36,114,33.87c2,11.17-37.74,60.54-95.64,70.71"/></g></g><path class="cls-13" d="M296.72,196c-57.9,10.17-103.53-35.72-103.53-35.72s27.26-58.69,85.15-68.86,112,22.35,114,33.87c2,11.17-37.74,60.54-95.64,70.71"/><g class="cls-4"><g class="cls-14"><path class="cls-6" d="M161.79,178.85c-5.79,1-10.39,2.39-11.4-3.4s3.77-6.06,9.56-7.08l82-25.22c5.79-1,22.71,6.26,23.73,12s-12.41,18.4-18.21,19.41Z"/></g></g><path class="cls-8" d="M167.9,170.14c-5.79,1-10.39,2.39-11.4-3.4s3.77-6.06,9.56-7.08l82-25.22c5.79-1,22.71,6.25,23.73,12s-12.41,18.39-18.21,19.41Z"/><g class="cls-4"><g class="cls-15"><path class="cls-6" d="M307.07,170.12a21.29,21.29,0,1,1,17.28-24.65,21.29,21.29,0,0,1-17.28,24.65"/></g></g><g class="cls-4"><g class="cls-16"><path class="cls-6" d="M347.16,152.27a10.65,10.65,0,1,1,8.64-12.33,10.65,10.65,0,0,1-8.64,12.33"/></g></g><path class="cls-17" d="M313.18,161.4a21.29,21.29,0,1,1,17.28-24.65,21.28,21.28,0,0,1-17.28,24.65"/><path class="cls-17" d="M353.27,143.55a10.64,10.64,0,1,1,8.64-12.32,10.65,10.65,0,0,1-8.64,12.32"/><path class="cls-10" d="M304.24,433.44H158.78a205.2,205.2,0,0,0,182.44,0h-37Z"/><path class="cls-8" d="M210.48,296.45c.3.42.54.88.81,1.32-.26-.45-.51-.9-.81-1.32"/><path class="cls-8" d="M213.25,302.51c.08.36.19.71.26,1.08-.07-.37-.18-.72-.26-1.08"/><path class="cls-8" d="M212.11,299.27c.19.41.36.83.52,1.25-.16-.43-.33-.84-.52-1.25"/><path class="cls-8" d="M204.48,291.15a17.89,17.89,0,0,1,2.11,1.34,17.89,17.89,0,0,0-2.11-1.34"/><path class="cls-8" d="M195.76,433.44h6v-24.1H153.58v21.44c1.72.92,3.45,1.8,5.2,2.66h37Z"/><rect class="cls-8" x="153.58" y="330.99" width="48.21" height="60.26"/><path class="cls-8" d="M210,295.86a18,18,0,0,0-3.2-3.21,18.34,18.34,0,0,1,3.2,3.21"/><path class="cls-8" d="M201.79,289.92a18,18,0,0,1,2.37,1.05,17.92,17.92,0,0,0-8.4-2.16h-24.1a18.08,18.08,0,0,0-18.08,18.08v6h48.21Z"/><path class="cls-13" d="M286.49,279.48c.07-.37.17-.72.26-1.07-.09.36-.19.7-.26,1.07"/><path class="cls-13" d="M288.71,273.67c.27-.45.51-.91.81-1.33-.3.42-.55.88-.81,1.33"/><rect class="cls-13" x="298.21" y="306.89" width="48.21" height="84.37"/><path class="cls-13" d="M293.41,268.38a20.15,20.15,0,0,1,2.1-1.34,19.15,19.15,0,0,0-2.1,1.34"/><path class="cls-13" d="M287.37,276.41c.16-.42.33-.84.52-1.24-.19.41-.36.82-.52,1.24"/><path class="cls-13" d="M298.21,288.81h48.21v-6a18.07,18.07,0,0,0-18.08-18.07h-24.1a17.91,17.91,0,0,0-8.4,2.15,18,18,0,0,1,2.37-1.05Z"/><path class="cls-13" d="M293.21,268.55a18,18,0,0,0-3.2,3.2,18.29,18.29,0,0,1,3.2-3.2"/><path class="cls-13" d="M346.42,409.34H298.21v24.1h43c1.75-.86,3.49-1.74,5.2-2.66V409.34Z"/><rect class="cls-10" x="153.58" y="312.92" width="48.21" height="18.08"/><rect class="cls-10" x="153.58" y="391.26" width="48.21" height="18.08"/><rect class="cls-18" x="298.21" y="391.26" width="48.21" height="18.08"/><rect class="cls-18" x="298.21" y="288.81" width="48.21" height="18.08"/><path class="cls-19" d="M286.16,306.89V433.44h12V265.81a19.37,19.37,0,0,0-2.37,1.05l-.33.18a20.15,20.15,0,0,0-2.1,1.34l-.2.17a18.29,18.29,0,0,0-3.2,3.2c-.16.2-.34.38-.49.59-.3.42-.55.88-.81,1.33s-.57,1-.82,1.5-.36.82-.52,1.24c-.24.65-.44,1.31-.62,2-.09.35-.19.7-.26,1.07a17.94,17.94,0,0,0-.33,3.31v24.1Z"/><path class="cls-20" d="M201.79,312.92V433.44h12.05V306.89a17.92,17.92,0,0,0-.33-3.3c-.07-.37-.17-.72-.26-1.08-.18-.68-.38-1.35-.62-2-.16-.42-.33-.84-.52-1.25s-.53-1-.82-1.5-.51-.9-.81-1.33c-.15-.2-.33-.38-.49-.58a18.34,18.34,0,0,0-3.2-3.21l-.2-.16a19.36,19.36,0,0,0-2.11-1.35l-.32-.17a18,18,0,0,0-2.37-1.05Z"/><path class="cls-17" d="M286.16,258.68a18.08,18.08,0,0,0-18.08-18.08H231.92a18.09,18.09,0,0,0-18.08,18.08v6h72.32Z"/><polygon class="cls-17" points="286.16 409.34 213.84 409.34 213.84 415.37 213.84 433.44 231.92 433.44 268.08 433.44 286.16 433.44 286.16 415.37 286.16 409.34"/><polygon class="cls-17" points="213.84 331 213.84 391.26 286.16 391.26 286.16 306.89 286.16 288.81 286.16 282.78 213.84 282.78 213.84 306.89 213.84 312.92 213.84 331"/><rect class="cls-21" x="213.84" y="264.71" width="72.32" height="18.08"/><rect class="cls-21" x="213.84" y="391.26" width="72.32" height="18.08"/></svg>