<svg id="Layer_1" data-name="Layer 1" xmlns="http://www.w3.org/2000/svg" xmlns:xlink="http://www.w3.org/1999/xlink" viewBox="0 0 500 500"><defs><style>.cls-1{fill:none;}.cls-2{fill:#f5f5f5;}.cls-3{fill:url(#linear-gradient);}.cls-4{opacity:0.2;}.cls-5{clip-path:url(#clip-path);}.cls-6{fill:#221f1f;}.cls-7{fill:#3b94d1;}.cls-8{clip-path:url(#clip-path-2);}.cls-9{fill:#20b798;}.cls-10{clip-path:url(#clip-path-3);}.cls-11{fill:#dfdfd0;}.cls-12{clip-path:url(#clip-path-4);}.cls-13{fill:#ef9a20;}.cls-14{clip-path:url(#clip-path-5);}.cls-15{fill:#bac0c4;}.cls-16{fill:#edc11b;}.cls-17{fill:#fff;}</style><linearGradient id="linear-gradient" x1="5" y1="250" x2="495" y2="250" gradientUnits="userSpaceOnUse"><stop offset="0" stop-color="#0d9848"/><stop offset="1" stop-color="#b3d234"/></linearGradient><clipPath id="clip-path"><rect id="SVGID" class="cls-1" x="242.83" y="108.1" width="192.97" height="211.61"/></clipPath><clipPath id="clip-path-2"><rect id="SVGID-2" data-name="SVGID" class="cls-1" x="53.52" y="204.32" width="199.41" height="219.77"/></clipPath><clipPath id="clip-path-3"><rect id="SVGID-3" data-name="SVGID" class="cls-1" x="278.21" y="106.08" width="137.98" height="154.1"/></clipPath><clipPath id="clip-path-4"><rect id="SVGID-4" data-name="SVGID" class="cls-1" x="94.4" y="222.74" width="109.93" height="109.93"/></clipPath><clipPath id="clip-path-5"><rect id="SVGID-5" data-name="SVGID" class="cls-1" x="121.88" y="333.02" width="54.97" height="30.07"/></clipPath></defs><title>Artboard 3</title><path class="cls-2" d="M451.56,193.56c-5.51,47.36-50,84.28-104.08,84.28-57.79,0-104.65-42.16-104.65-94.19s46.86-94.18,104.65-94.18A113.49,113.49,0,0,1,396,100.19,208.7,208.7,0,0,0,250,40.9C134.39,40.9,40.67,134.52,40.67,250a210.37,210.37,0,0,0,3,35.27c1.64-50.74,47.82-91.42,104.58-91.42,57.8,0,104.65,42.17,104.65,94.19s-46.85,94.19-104.65,94.19c-36.4,0-68.45-16.74-87.2-42.12A209.35,209.35,0,0,0,250,459.09c115.62,0,209.34-93.62,209.34-209.09a208.91,208.91,0,0,0-7.78-56.44"/><path class="cls-3" d="M250,495C114.91,495,5,385.09,5,250S114.91,5,250,5,495,114.9,495,250,385.09,495,250,495m0-462C130.37,33,33,130.37,33,250s97.33,217,217,217S467,369.62,467,250,369.63,33,250,33"/><g class="cls-4"><g class="cls-5"><path class="cls-6" d="M435.8,198.79c0-50.09-43.19-90.69-96.49-90.69s-96.48,40.6-96.48,90.69c0,48.21,40,87.52,90.58,90.41,3.32,18.4,5.9,30.51,5.9,30.51a228,228,0,0,0,46.51-41.47c29.79-15.44,50-45.22,50-79.45"/></g></g><path class="cls-7" d="M436.44,177.38c0,78.29-89,131.86-89,131.86s-49.13-219.77,0-219.77,89,39.35,89,87.91"/><g class="cls-4"><g class="cls-8"><path class="cls-6" d="M53.51,298.5c0-52,44.64-94.19,99.71-94.19s99.7,42.18,99.7,94.19c0,50.07-41.39,90.9-93.59,93.9-3.43,19.11-6.11,31.69-6.11,31.69a236,236,0,0,1-48-43.07c-30.79-16-51.66-47-51.66-82.52"/></g></g><path class="cls-7" d="M242.83,183.65c0,52,46.86,94.2,104.65,94.2,54.08,0,98.58-36.93,104.08-84.28A208.85,208.85,0,0,0,396,100.19a113.5,113.5,0,0,0-48.49-10.73c-57.79,0-104.65,42.18-104.65,94.19"/><path class="cls-9" d="M148.27,382.23c57.8,0,104.66-42.17,104.66-94.19s-46.86-94.19-104.66-94.19c-56.77,0-102.94,40.68-104.57,91.41a207.17,207.17,0,0,0,17.37,54.85c18.75,25.38,50.8,42.12,87.2,42.12"/><path class="cls-9" d="M63.4,281.76c0,78.29,88.95,131.86,88.95,131.86s49.13-219.77,0-219.77S63.4,233.21,63.4,281.76"/><g class="cls-4"><g class="cls-10"><path class="cls-6" d="M413.93,144.61c-2.66-4.62-8.87-10.12-23.31-10.12a77.75,77.75,0,0,0-16.36,1.95c-6-18.68-15.7-30.36-27.05-30.36s-21,11.68-27.06,30.36a77.73,77.73,0,0,0-16.35-1.95c-14.45,0-20.66,5.5-23.32,10.12-5.67,9.81-.43,24,12.69,38.52-13.12,14.51-18.36,28.72-12.69,38.53,2.66,4.62,8.87,10.12,23.32,10.12a77.79,77.79,0,0,0,16.35-2c6,18.69,15.7,30.36,27.06,30.36s21-11.67,27.05-30.36a77.8,77.8,0,0,0,16.36,2c14.44,0,20.65-5.5,23.31-10.12,5.67-9.81.43-24-12.69-38.53,13.12-14.51,18.36-28.71,12.69-38.52m-23.31-1.06c7.89,0,13.38,2,15.46,5.59,3.24,5.61-.89,16-11.24,27.49a149.24,149.24,0,0,0-15-12.32,148.7,148.7,0,0,0-3.14-19.1,69.32,69.32,0,0,1,13.95-1.66m-31.18,60.78c-4.06,2.35-8.15,4.44-12.23,6.38-4.08-1.94-8.18-4-12.24-6.38s-8.05-4.87-11.7-7.38c-.34-4.42-.54-9-.54-13.82s.2-9.4.54-13.82c3.65-2.5,7.55-5,11.7-7.38s8.16-4.44,12.24-6.38c4.08,1.94,8.17,4,12.23,6.38s8,4.88,11.7,7.38c.35,4.42.54,9,.54,13.82s-.19,9.4-.54,13.82q-5.49,3.77-11.7,7.38m10.33,4.36c-.55,3.54-1.2,6.91-1.94,10.08-3.2-1-6.45-2-9.78-3.33,2-1.05,4-2.13,5.93-3.26s3.9-2.31,5.79-3.49m-33.41,6.75c-3.33,1.29-6.58,2.37-9.77,3.33-.75-3.17-1.4-6.54-1.95-10.08q2.83,1.77,5.8,3.49c2,1.13,3.94,2.21,5.92,3.26M313.79,189.9q-4.21-3.39-7.8-6.77,3.58-3.36,7.8-6.76c-.07,2.22-.12,4.47-.12,6.76s.05,4.54.12,6.77m10.85-32.32q.83-5.33,1.95-10.09c3.19,1,6.44,2,9.77,3.34-2,1-4,2.12-5.92,3.26s-3.91,2.31-5.8,3.49m33.41-6.75c3.33-1.29,6.58-2.38,9.78-3.34q1.11,4.77,1.94,10.09c-1.89-1.18-3.81-2.35-5.79-3.49s-4-2.21-5.93-3.26m22.57,25.54q4.22,3.39,7.8,6.76-3.59,3.38-7.8,6.77c.08-2.23.13-4.48.13-6.77s-.05-4.54-.13-6.76m-33.41-61.22c6.49,0,13.4,8.79,18.22,23.58a152.78,152.78,0,0,0-18.22,6.81A152.78,152.78,0,0,0,329,138.73c4.81-14.79,11.72-23.58,18.22-23.58m-58.88,34c2.08-3.61,7.57-5.59,15.47-5.59a69.31,69.31,0,0,1,13.94,1.66,148.7,148.7,0,0,0-3.14,19.1,150.37,150.37,0,0,0-15,12.32c-10.34-11.53-14.48-21.88-11.24-27.49m15.47,73.58c-7.9,0-13.39-2-15.47-5.59-3.24-5.62.9-16,11.24-27.49a150.37,150.37,0,0,0,15,12.32,148.7,148.7,0,0,0,3.14,19.1,69.31,69.31,0,0,1-13.94,1.66m43.41,28.4c-6.5,0-13.41-8.8-18.22-23.59a152.67,152.67,0,0,0,18.22-6.8,152.67,152.67,0,0,0,18.22,6.8c-4.82,14.79-11.73,23.59-18.22,23.59m58.87-34c-2.08,3.6-7.57,5.59-15.46,5.59a69.32,69.32,0,0,1-13.95-1.66,148.7,148.7,0,0,0,3.14-19.1,149.24,149.24,0,0,0,15-12.32c10.35,11.53,14.48,21.87,11.24,27.49"/><path class="cls-6" d="M347.21,174.07a9.07,9.07,0,1,0,9.06,9.06,9.07,9.07,0,0,0-9.06-9.06"/></g></g><path class="cls-9" d="M413.93,138.56c-2.66-4.62-8.87-10.12-23.31-10.12a77.8,77.8,0,0,0-16.36,2c-6-18.69-15.7-30.36-27.05-30.36s-21,11.67-27.06,30.36a77.79,77.79,0,0,0-16.35-2c-14.45,0-20.66,5.5-23.32,10.12-5.67,9.82-.43,24,12.69,38.53-13.12,14.51-18.36,28.71-12.69,38.52,2.66,4.62,8.87,10.13,23.32,10.13a77.79,77.79,0,0,0,16.35-2c6,18.68,15.7,30.36,27.06,30.36s21-11.68,27.05-30.36a77.8,77.8,0,0,0,16.36,2c14.44,0,20.65-5.51,23.31-10.13,5.67-9.81.43-24-12.69-38.52,13.12-14.51,18.36-28.71,12.69-38.53m-23.31-1.05c7.89,0,13.38,2,15.46,5.58,3.24,5.62-.89,16-11.24,27.49a149.24,149.24,0,0,0-15-12.32,149,149,0,0,0-3.14-19.1,69.26,69.26,0,0,1,13.95-1.65m-31.18,60.77c-4.06,2.35-8.15,4.45-12.23,6.39-4.08-1.94-8.18-4-12.24-6.39s-8.05-4.87-11.7-7.37c-.34-4.42-.54-9-.54-13.82s.2-9.4.54-13.82q5.48-3.77,11.7-7.38c4.06-2.34,8.16-4.44,12.24-6.38,4.08,1.94,8.17,4,12.23,6.38s8,4.87,11.7,7.38c.35,4.42.54,9,.54,13.82s-.19,9.4-.54,13.82c-3.66,2.5-7.55,5-11.7,7.37m10.33,4.36q-.82,5.33-1.94,10.09c-3.2-1-6.45-2-9.78-3.33,2-1.05,4-2.13,5.93-3.27s3.9-2.31,5.79-3.49m-33.41,6.76c-3.33,1.29-6.58,2.37-9.77,3.33q-1.12-4.77-1.95-10.09c1.89,1.18,3.82,2.35,5.8,3.49s3.94,2.22,5.92,3.27m-22.57-25.55q-4.21-3.39-7.8-6.76,3.58-3.37,7.8-6.76c-.07,2.22-.12,4.47-.12,6.76s.05,4.54.12,6.76m10.85-32.32q.83-5.31,1.95-10.08c3.19,1,6.44,2,9.77,3.33-2,1.05-4,2.13-5.92,3.26s-3.91,2.31-5.8,3.49m33.41-6.75c3.33-1.29,6.58-2.37,9.78-3.33q1.11,4.77,1.94,10.08c-1.89-1.18-3.81-2.34-5.79-3.49s-4-2.21-5.93-3.26m22.57,25.55q4.22,3.38,7.8,6.76-3.59,3.36-7.8,6.76c.08-2.22.13-4.48.13-6.76s-.05-4.54-.13-6.76M347.21,109.1c6.49,0,13.4,8.8,18.22,23.59a151.07,151.07,0,0,0-18.22,6.81A151.07,151.07,0,0,0,329,132.69c4.81-14.79,11.72-23.59,18.22-23.59m-58.88,34c2.08-3.6,7.57-5.58,15.47-5.58a69.25,69.25,0,0,1,13.94,1.65,149,149,0,0,0-3.14,19.1,150.37,150.37,0,0,0-15,12.32c-10.34-11.53-14.48-21.87-11.24-27.49m15.47,73.58c-7.9,0-13.39-2-15.47-5.59-3.24-5.61.9-16,11.24-27.49a149,149,0,0,0,15,12.32,148.41,148.41,0,0,0,3.14,19.1,69.31,69.31,0,0,1-13.94,1.66m43.41,28.41c-6.5,0-13.41-8.8-18.22-23.59a151.07,151.07,0,0,0,18.22-6.81,151.07,151.07,0,0,0,18.22,6.81c-4.82,14.79-11.73,23.59-18.22,23.59m58.87-34c-2.08,3.61-7.57,5.59-15.46,5.59A69.32,69.32,0,0,1,376.67,215a148.41,148.41,0,0,0,3.14-19.1,147.89,147.89,0,0,0,15-12.32c10.35,11.53,14.48,21.88,11.24,27.49"/><path class="cls-9" d="M356.27,177.09a9.07,9.07,0,1,1-9.06-9.07,9.06,9.06,0,0,1,9.06,9.07"/><path class="cls-11" d="M121.88,312.06c0-1.89,2.21-1.7,3.85-2.64l20.66-11.93a6.63,6.63,0,0,1,6,0L173,309.42c1.63.94,3.85.75,3.85,2.64v25.45c0,1.88-2.22,5.13-3.85,6.07l-20.66,11.93a6.57,6.57,0,0,1-6,0l-20.66-11.93c-1.64-.94-3.85-4.19-3.85-6.07Z"/><g class="cls-4"><g class="cls-12"><path class="cls-6" d="M149.36,222.74a55,55,0,1,0,55,55,55,55,0,0,0-55-55"/></g></g><path class="cls-13" d="M149.36,329.24a58.4,58.4,0,1,1,58.4-58.4,58.47,58.47,0,0,1-58.4,58.4"/><g class="cls-4"><g class="cls-14"><path class="cls-6" d="M121.88,333v11.36c0,1.88,2.21,5.13,3.85,6.07l20.66,11.93a6.57,6.57,0,0,0,6,0L173,350.45c1.63-.94,3.85-4.19,3.85-6.07V333a61.11,61.11,0,0,1-55,0"/></g></g><path class="cls-15" d="M121.88,312.24V337.5c0,1.89,2.21,5.14,3.85,6.08l20.66,11.93a6.57,6.57,0,0,0,6,0L173,343.58c1.63-.94,3.85-4.19,3.85-6.08V312.24a61.19,61.19,0,0,1-55,0"/><path class="cls-16" d="M149.36,215.87a55,55,0,1,0,55,55,55,55,0,0,0-55-55"/><path class="cls-17" d="M149.37,317.39a5.16,5.16,0,0,1-5.16-5.16V284.57c-9.16-.49-16.51-2.76-21.89-6.75-5.62-4.19-8.72-10.06-8.72-16.54a19.59,19.59,0,0,1,33.63-13.72c7.86,8.29,7.36,22,7.28,23.55v41.12a5.16,5.16,0,0,1-5.15,5.16m-16.54-65.45c-5.51,0-8.92,4.85-8.92,9.34,0,2.22.79,5.46,4.56,8.27,2.59,1.92,7.34,4.16,15.74,4.69v-3.4c.15-3.24-.37-11.9-4.48-16.21a8.91,8.91,0,0,0-6.9-2.69"/><path class="cls-17" d="M149.38,317.39a5.16,5.16,0,0,1-5.15-5.16V270.84c-.07-1.26-.57-15,7.29-23.28a19.59,19.59,0,0,1,33.63,13.72c0,6.48-3.1,12.35-8.72,16.54-5.38,4-12.73,6.26-21.9,6.75v27.66a5.16,5.16,0,0,1-5.16,5.16m16.54-65.45a8.9,8.9,0,0,0-6.92,2.71c-4.11,4.34-4.62,13.16-4.47,15.91v3.68c8.41-.53,13.16-2.77,15.75-4.69,3.77-2.81,4.56-6.05,4.56-8.27,0-4.49-3.41-9.34-8.92-9.34"/></svg>