<svg id="Layer_1" data-name="Layer 1" xmlns="http://www.w3.org/2000/svg" xmlns:xlink="http://www.w3.org/1999/xlink" viewBox="0 0 500 500"><defs><style>.cls-1{fill:none;}.cls-2{fill:url(#linear-gradient);}.cls-3{fill:#f5f5f5;}.cls-4{opacity:0.2;}.cls-5{clip-path:url(#clip-path);}.cls-6{fill:#221f1f;}.cls-7{clip-path:url(#clip-path-2);}.cls-8{fill:#642240;}.cls-9{clip-path:url(#clip-path-3);}.cls-10{fill:#3b94d1;}</style><linearGradient id="linear-gradient" x1="5" y1="250" x2="495" y2="250" gradientUnits="userSpaceOnUse"><stop offset="0" stop-color="#70cbda"/><stop offset="1" stop-color="#3f7cbd"/></linearGradient><clipPath id="clip-path"><rect id="SVGID" class="cls-1" x="159.51" y="325.02" width="180.98" height="76.88"/></clipPath><clipPath id="clip-path-2"><rect id="SVGID-2" data-name="SVGID" class="cls-1" x="217.33" y="290.42" width="65.35" height="146.07"/></clipPath><clipPath id="clip-path-3"><rect id="SVGID-3" data-name="SVGID" class="cls-1" x="102.03" y="75.83" width="295.94" height="197.29"/></clipPath></defs><title>support</title><path class="cls-2" d="M250,495C114.91,495,5,385.09,5,250S114.91,5,250,5,495,114.9,495,250,385.09,495,250,495m0-462C130.37,33,33,130.37,33,250s97.33,217,217,217S467,369.62,467,250,369.63,33,250,33"/><path class="cls-3" d="M459.33,250c0,115.47-93.72,209.09-209.33,209.09S40.67,365.47,40.67,250,134.39,40.9,250,40.9,459.33,134.52,459.33,250"/><g class="cls-4"><g class="cls-5"><path class="cls-6" d="M290.21,401.9a7.69,7.69,0,0,1-4-14.24l38.91-24a.76.76,0,0,0,0-.21.66.66,0,0,0,0-.21l-38.91-24a7.69,7.69,0,0,1,8.07-13.09l40.86,25.19.63.64a16.2,16.2,0,0,1,0,22.93l-.64.64-40.86,25.19a7.62,7.62,0,0,1-4,1.15"/><path class="cls-6" d="M209.79,401.9a7.62,7.62,0,0,1-4-1.15L164.9,375.56l-.64-.64a16.2,16.2,0,0,1,0-22.93l.63-.64,40.86-25.19a7.69,7.69,0,1,1,8.07,13.09l-38.91,24a.66.66,0,0,0,0,.21.76.76,0,0,0,0,.21l38.91,24a7.69,7.69,0,0,1-4,14.24"/></g></g><g class="cls-4"><g class="cls-7"><path class="cls-6" d="M225,436.49a7.55,7.55,0,0,1-2.74-.51,7.68,7.68,0,0,1-4.44-9.92l50-130.69a7.69,7.69,0,1,1,14.36,5.49l-50,130.69a7.7,7.7,0,0,1-7.19,4.94"/></g></g><path class="cls-8" d="M290.21,394.21a7.69,7.69,0,0,1-4-14.23l38.91-24a.82.82,0,0,0,0-.44l-38.91-24a7.68,7.68,0,1,1,8.07-13.08l40.86,25.19.64.63a16.25,16.25,0,0,1,0,22.94l-.64.63-40.86,25.2a7.7,7.7,0,0,1-4,1.14"/><path class="cls-8" d="M209.79,394.21a7.7,7.7,0,0,1-4-1.14l-40.86-25.2-.64-.63a16.25,16.25,0,0,1,0-22.94l.64-.63,40.86-25.19a7.68,7.68,0,1,1,8.07,13.08l-38.91,24a.82.82,0,0,0,0,.44l38.91,24a7.69,7.69,0,0,1-4,14.23"/><path class="cls-8" d="M225,428.81a7.7,7.7,0,0,1-7.18-10.44l50-130.69a7.69,7.69,0,1,1,14.36,5.49l-50,130.69a7.7,7.7,0,0,1-7.19,4.95"/><g class="cls-4"><g class="cls-9"><path class="cls-6" d="M348.65,174.48a98.59,98.59,0,0,0-194.26-23.89,61.62,61.62,0,0,0,9.3,122.54H213a12.33,12.33,0,0,0,12.33-12.34v-33.9a9.25,9.25,0,0,0-9.25-9.25H197.21c-9.06,0-11.6-6.23-5.63-13.84l47.56-60.6c6-7.61,15.75-7.61,21.72,0l47.56,60.6c6,7.61,3.43,13.84-5.63,13.84H283.91a9.25,9.25,0,0,0-9.25,9.25v33.9A12.33,12.33,0,0,0,287,273.13h61.66a49.33,49.33,0,0,0,0-98.65"/></g></g><path class="cls-10" d="M348.65,162.15a98.59,98.59,0,0,0-194.26-23.89,61.62,61.62,0,0,0,9.3,122.54H213a12.34,12.34,0,0,0,12.33-12.34v-33.9a9.25,9.25,0,0,0-9.25-9.25H197.21c-9.06,0-11.6-6.23-5.63-13.85l47.56-60.59c6-7.61,15.75-7.61,21.72,0l47.56,60.59c6,7.62,3.43,13.85-5.63,13.85H283.91a9.25,9.25,0,0,0-9.25,9.25v33.9A12.34,12.34,0,0,0,287,260.8h61.66a49.33,49.33,0,0,0,0-98.65"/></svg>