<?xml version="1.0" encoding="utf-8"?>
<!-- Generator: Adobe Illustrator 22.1.0, SVG Export Plug-In . SVG Version: 6.00 Build 0)  -->
<svg version="1.1" id="Layer_1" xmlns="http://www.w3.org/2000/svg" xmlns:xlink="http://www.w3.org/1999/xlink" x="0px" y="0px"
	 viewBox="0 0 460 460" style="enable-background:new 0 0 460 460;" xml:space="preserve">
<style type="text/css">
	.st0{fill:#B151D7;}
	.st1{fill:#FFFFFF;}
</style>
<path class="st0" d="M427.7,461h-396c-17.6,0-32-14.4-32-32V33c0-17.6,14.4-32,32-32h396c17.6,0,32,14.4,32,32v396
	C459.7,446.6,445.3,461,427.7,461z"/>
<g>
	<polygon class="st1" points="382.6,308.4 380.1,234.4 379.9,162.7 376.7,162.7 376.9,234.5 379.3,308.5 	"/>
	<polygon class="st1" points="339.7,308.5 342.1,234.5 342.3,162.7 339.1,162.7 338.9,234.4 336.4,308.4 	"/>
	<rect x="311.1" y="306" class="st1" width="97.1" height="8.1"/>
	<path class="st1" d="M378.4,162.6v-1.6h-34.5l15.3-20l17.9,22.7L378.4,162.6v-1.6V162.6l1.3-1l-19.2-24.3c-0.3-0.4-0.8-0.6-1.3-0.6
		c-0.5,0-1,0.3-1.3,0.7l-18.6,24.3c-0.4,0.5-0.5,1.2-0.2,1.7c0.3,0.6,0.9,0.9,1.5,0.9h37.8c0.6,0,1.2-0.4,1.5-0.9
		c0.3-0.6,0.2-1.2-0.2-1.7L378.4,162.6z"/>
	<path class="st1" d="M340.8,197.2h37.5c0.9,0,1.6-0.7,1.6-1.6c0-0.9-0.7-1.6-1.6-1.6h-37.5c-0.9,0-1.6,0.7-1.6,1.6
		C339.2,196.5,339.9,197.2,340.8,197.2"/>
	<path class="st1" d="M340.5,235h38c0.9,0,1.6-0.7,1.6-1.6c0-0.9-0.7-1.6-1.6-1.6h-38c-0.9,0-1.6,0.7-1.6,1.6S339.6,235,340.5,235"
		/>
	<path class="st1" d="M339.7,272.8h39.8c0.9,0,1.6-0.7,1.6-1.6s-0.7-1.6-1.6-1.6h-39.8c-0.9,0-1.6,0.7-1.6,1.6
		S338.8,272.8,339.7,272.8"/>
	<path class="st1" d="M376.6,161.7L340.2,194c-0.7,0.6-0.8,1.6-0.2,2.3c0.6,0.7,1.6,0.8,2.3,0.2l36.5-32.3c0.7-0.6,0.8-1.6,0.2-2.3
		C378.4,161.1,377.3,161.1,376.6,161.7"/>
	<path class="st1" d="M340.2,164.1l36.5,32.3c0.7,0.6,1.7,0.6,2.3-0.2c0.6-0.7,0.6-1.7-0.2-2.3l-36.5-32.3c-0.7-0.6-1.7-0.6-2.3,0.2
		C339.4,162.5,339.5,163.5,340.2,164.1"/>
	<path class="st1" d="M376.6,194.5l-37,37.5c-0.7,0.7-0.6,1.7,0,2.3c0.7,0.7,1.7,0.6,2.3,0l37-37.5c0.7-0.7,0.6-1.7,0-2.3
		C378.3,193.8,377.2,193.8,376.6,194.5"/>
	<path class="st1" d="M340,197.3l36.9,36.3c0.7,0.7,1.7,0.6,2.3,0c0.7-0.7,0.6-1.7,0-2.3L342.4,195c-0.7-0.7-1.7-0.6-2.3,0
		C339.4,195.6,339.4,196.7,340,197.3"/>
	<path class="st1" d="M377,233.4l-37.6,36.1c-0.7,0.6-0.7,1.7-0.1,2.3c0.6,0.7,1.7,0.7,2.3,0.1l37.6-36.1c0.7-0.6,0.7-1.7,0.1-2.3
		C378.7,232.7,377.7,232.7,377,233.4"/>
	<path class="st1" d="M339.4,235.7l37.6,36.1c0.7,0.6,1.7,0.6,2.3-0.1c0.6-0.7,0.6-1.7-0.1-2.3l-37.6-36.1c-0.7-0.6-1.7-0.6-2.3,0.1
		C338.7,234.1,338.8,235.1,339.4,235.7"/>
	<path class="st1" d="M378.1,270.2l-39.8,36.2c-0.7,0.6-0.7,1.7-0.1,2.3c0.6,0.7,1.6,0.7,2.3,0.1l39.8-36.2c0.7-0.6,0.7-1.7,0.1-2.3
		C379.8,269.6,378.8,269.5,378.1,270.2"/>
	<path class="st1" d="M338.3,272.6l39.8,36.2c0.7,0.6,1.7,0.6,2.3-0.1c0.6-0.7,0.6-1.7-0.1-2.3l-39.8-36.2c-0.7-0.6-1.7-0.6-2.3,0.1
		C337.6,270.9,337.7,272,338.3,272.6"/>
	<path class="st1" d="M378.2,178.4v-1.6h-37.6c-0.3,0-0.5,0.1-0.7,0.2l-38.2,16.9c-0.7,0.3-1.1,1.1-1,1.8c0.2,0.8,0.8,1.3,1.6,1.3
		H416c0.8,0,1.4-0.6,1.6-1.3c0.2-0.8-0.3-1.5-0.9-1.8l-37.9-17c-0.2-0.1-0.5-0.2-0.7-0.2V178.4l-0.7,1.5l30.8,13.8h-98.2l30.8-13.6
		h37.3V178.4l-0.7,1.5L378.2,178.4z"/>
	<path class="st1" d="M378.6,214v-1.6h-37.8c-0.3,0-0.5,0.1-0.8,0.2l-38.5,19.5c-0.7,0.4-1,1.1-0.9,1.8c0.2,0.8,0.9,1.3,1.6,1.3
		h113.6c0.8,0,1.4-0.5,1.6-1.3c0.2-0.7-0.2-1.5-0.8-1.8l-37.4-19.6c-0.3-0.1-0.5-0.2-0.8-0.2V214l-0.8,1.5l31.5,16.5H309.2l32-16.3
		h37.4V214l-0.8,1.5L378.6,214z"/>
	<path class="st1" d="M300.5,233.8v8.6c0,0.9,0.7,1.6,1.6,1.6c0.9,0,1.6-0.7,1.6-1.6v-8.6c0-0.9-0.8-1.6-1.6-1.6
		C301.3,232.1,300.5,232.9,300.5,233.8"/>
	<rect x="297.5" y="242.2" class="st1" width="19.4" height="5.1"/>
	<path class="st1" d="M300.5,195.4v8.6c0,0.9,0.7,1.6,1.6,1.6c0.9,0,1.6-0.7,1.6-1.6v-8.6c0-0.9-0.8-1.6-1.6-1.6
		C301.3,193.8,300.5,194.5,300.5,195.4"/>
	<rect x="297.5" y="203.9" class="st1" width="19.4" height="5.1"/>
	<path class="st1" d="M414.2,234v8.6c0,0.9,0.7,1.6,1.6,1.6s1.6-0.7,1.6-1.6V234c0-0.9-0.7-1.6-1.6-1.6
		C414.9,232.3,414.2,233.1,414.2,234"/>
	<rect x="401.1" y="242.4" class="st1" width="19.4" height="5.1"/>
	<path class="st1" d="M414.2,195.6v8.6c0,0.9,0.7,1.6,1.6,1.6s1.6-0.7,1.6-1.6v-8.6c0-0.9-0.7-1.6-1.6-1.6
		C414.9,194,414.2,194.7,414.2,195.6"/>
	<rect x="401.1" y="204.1" class="st1" width="19.4" height="5.1"/>
</g>
<g>
	<rect x="214.6" y="262" class="st1" width="4.9" height="33.7"/>
	<path class="st1" d="M187.1,292.5H247c0.5,0,0.9,0.2,1.2,0.4l20.4,12.1l-1,2.8l1-2.8c1.2,0.8,1.8,2.6,1.2,4.2
		c-0.4,1.1-1.3,1.9-2.3,1.8h-101c-1.4,0-2.5-1.4-2.5-3.2c0-1.4,0.7-2.5,1.6-2.9l20.3-12.1l0,0C186.3,292.6,186.7,292.5,187.1,292.5
		L187.1,292.5z M246.5,298.8h-58.9l-9.9,5.9h78.9L246.5,298.8z"/>
	<polygon class="st1" points="248.6,166.2 264.3,261.4 264.9,265.2 261.9,265.2 217,265.2 172.1,265.2 169.1,265.2 169.7,261.4 
		185.4,166.2 190.3,167.5 175.2,258.9 217,258.9 258.8,258.9 243.7,167.5 	"/>
	<polygon class="st1" points="230.2,166.6 235.9,261.8 236.1,265.2 233.4,265.2 217,265.2 200.6,265.2 197.9,265.2 198.1,261.8 
		203.8,166.8 208.8,167.3 203.2,258.9 217,258.9 230.8,258.9 225.2,167.1 	"/>
	<rect x="164.3" y="184" class="st1" width="105.5" height="6.3"/>
	<rect x="158.4" y="206.1" class="st1" width="117.3" height="6.3"/>
	<rect x="152.1" y="229.3" class="st1" width="129.8" height="6.3"/>
	<path class="st1" d="M170,163.7h94c1.2,0,2.2,1,2.4,2.4l23.4,95l0,0c0.4,1.6-0.3,3.4-1.6,3.9c-0.3,0.1-0.5,0.2-0.8,0.2h-141
		c-1.4,0-2.5-1.4-2.5-3.2c0-0.4,0-0.8,0.2-1.1l23.4-95l2.4,0.9l-2.4-0.9C168,164.5,169,163.7,170,163.7L170,163.7z M262.2,170h-90.4
		l-21.9,88.9h134.3L262.2,170z"/>
</g>
<g>
	<path class="st1" d="M117.9,158.9h-8.3v-0.7c0-4.5-4-8.2-8.9-8.2H72.8c-4.9,0-8.9,3.6-8.9,8.2v0.7H56c-7.5,0-13.6,5.6-13.6,12.4
		v128.3c0,6.8,6.1,12.4,13.6,12.4h61.9c7.5,0,13.6-5.6,13.6-12.4V171.3C131.4,164.5,125.4,158.9,117.9,158.9z M123.3,299.6
		c0,2.8-2.5,5-5.5,5H56.1c-3,0-5.5-2.3-5.5-5V171.3c0-2.8,2.5-5,5.5-5h16v-8.2c0-0.4,0.4-0.7,0.8-0.7h27.9c0.4,0,0.8,0.3,0.8,0.7
		v8.2h16.4c3,0,5.5,2.3,5.5,5V299.6z"/>
	<path class="st1" d="M117.3,170H57c-1.1,0-2,3.8-2,8.5v114c0,4.7,0.9,8.5,2,8.5h60.3c1.1,0,2-3.8,2-8.5v-114
		C119.3,173.8,118.4,170,117.3,170z"/>
</g>
</svg>
