<?xml version="1.0" encoding="utf-8"?>
<!-- Generator: Adobe Illustrator 22.1.0, SVG Export Plug-In . SVG Version: 6.00 Build 0)  -->
<svg version="1.1" id="Layer_1" xmlns="http://www.w3.org/2000/svg" xmlns:xlink="http://www.w3.org/1999/xlink" x="0px" y="0px"
	 viewBox="0 0 460 460" style="enable-background:new 0 0 460 460;" xml:space="preserve">
<style type="text/css">
	.st0{fill:#DE3C62;}
	.st1{fill-rule:evenodd;clip-rule:evenodd;fill:#FFFFFF;}
	.st2{fill-rule:evenodd;clip-rule:evenodd;fill:#DE3C62;stroke:#FFFFFF;stroke-width:5;stroke-miterlimit:10;}
	.st3{fill-rule:evenodd;clip-rule:evenodd;fill:#F7FFE3;}
	.st4{fill-rule:evenodd;clip-rule:evenodd;fill:#DE3C62;}
	.st5{fill:#FFFFFF;}
</style>
<path class="st0" d="M428,461H32c-17.6,0-32-14.4-32-32V33C0,15.4,14.4,1,32,1h396c17.6,0,32,14.4,32,32v396
	C460,446.6,445.6,461,428,461z"/>
<g>
	<path class="st1" d="M311.6,308.7c-4.3,0-7.9-3-7.9-6.7v-8.8c0-1.2,0.9-2.1,2.1-2.1c5.4,0,6.2,0,11.7,0c1.2,0,2.1,0.9,2.1,2.1v8.8
		C319.4,305.7,315.8,308.7,311.6,308.7z"/>
	<path class="st1" d="M389,189.2c-1.3,0-14.4,0.1-14.5,0.1c-1.3,0-2.3-1-2.3-2.4v-3.1c0-3,2.2-5.4,4.8-5.4h9.5c2.7,0,5,2.5,5,5.4v3
		C391.5,188.1,390.4,189.2,389,189.2z"/>
	<path class="st1" d="M409.1,203c-32.1,0-82.3,0-102.2,0c-1.2,0-2.1-0.9-2.1-2.1V194c0-5,4-8.9,8.9-8.9h88.3c5,0,8.9,4,8.9,8.9v6.9
		C411.1,202.1,410.3,203,409.1,203z"/>
	<path class="st2" d="M416.2,295.3h-5.4h-4.3h-24.4c-0.2,0.1-0.4,0.1-0.7,0.1h-85c-6.1,0-11.2-5-11.2-11.2v-74.1
		c0-6.1,5-11.1,11.2-11.1h119.7c6.1,0,11.1,5,11.1,11.1v74C427.2,290.2,422.3,295.3,416.2,295.3z"/>
	<path class="st3" d="M371.6,199h4.2v72l51.5,0v4h-53.6c-1.2,0-2.1-0.9-2.1-2.1V199z"/>
	<path class="st1" d="M394,308.7c-8.1,0-14.5-6.5-14.5-14.4c0-8,6.6-14.4,14.5-14.4c8,0,14.4,6.5,14.4,14.4
		C408.4,302.2,402,308.7,394,308.7z"/>
	<path class="st1" d="M345.7,275.7c-5.5,0-10-4.5-10-10s4.5-10,10-10s10,4.5,10,10S351.3,275.7,345.7,275.7L345.7,275.7z
		 M345.7,259.6c-3.3,0-6,2.7-6,6c0,3.3,2.7,6,6,6c3.3,0,6-2.7,6-6C351.7,262.4,349,259.6,345.7,259.6z"/>
	<path class="st1" d="M345.7,250.6c-5.5,0-10-4.5-10-10s4.5-10,10-10s10,4.5,10,10S351.3,250.6,345.7,250.6L345.7,250.6z
		 M345.7,234.4c-3.2,0-6,2.8-6,6c0,3.2,2.8,6,6,6c3.2,0,6-2.8,6-6C351.7,237.2,349,234.4,345.7,234.4z"/>
	<path class="st1" d="M357.9,286h-56.8c-1.2,0-2.1-0.9-2.1-2.1c0-1.2,0.9-2.1,2.1-2.1h56.8c1.2,0,2.1,0.9,2.1,2.1
		C359.9,285.1,358.9,286,357.9,286z"/>
	<path class="st1" d="M349.6,211.6h-16c-1.2,0-2.1-0.9-2.1-2.1s0.9-2.1,2.1-2.1h16c1.2,0,2.1,0.9,2.1,2.1S350.7,211.6,349.6,211.6z"
		/>
	<path class="st1" d="M349.6,220.1h-16c-1.2,0-2.1-0.9-2.1-2.1c0-1.2,0.9-2.1,2.1-2.1h16c1.2,0,2.1,0.9,2.1,2.1
		C351.6,219.2,350.7,220.1,349.6,220.1z"/>
	<path class="st1" d="M353.7,242.5h-8.1c-1.2,0-2.1-0.9-2.1-2.1c0-1.2,0.9-2.1,2.1-2.1h8.1c1.2,0,2.1,0.9,2.1,2.1
		C355.8,241.6,354.9,242.5,353.7,242.5z"/>
	<path class="st3" d="M386.2,267.1c-0.3,0-0.7-0.1-1-0.3c-0.8-0.5-1.2-1.6-0.8-2.5l9.5-23.1H386c-0.7,0-1.4-0.3-1.7-1
		c-0.3-0.6-0.3-1.4,0-2l15-27.5c0.3-0.7,1-1,1.7-1l13.2,0c0.7,0,1.4,0.3,1.7,1c0.3,0.6,0.3,1.4,0,2.1l-9,15.7h8.1
		c0.8,0,1.5,0.5,1.8,1.2c0.3,0.7,0.2,1.5-0.2,2.2l-28.9,34.5C387.3,266.8,386.7,267.1,386.2,267.1z"/>
	<path class="st4" d="M351.4,238.4c-0.9-2.3-3.1-3.9-5.6-3.9c-3.2,0-6,2.8-6,6c0,3.2,2.8,6,6,6c2.5,0,4.7-1.7,5.6-3.9h-5.7
		c-1.2,0-2.1-0.9-2.1-2.1c0-1.2,0.9-2.1,2.1-2.1H351.4z"/>
	<path class="st4" d="M351.7,265.6c0-3.2-2.8-6-6-6c-3.3,0-6,2.7-6,6c0,3.3,2.7,6,6,6C349.1,271.6,351.7,269,351.7,265.6z"/>
</g>
<g>
	<path class="st5" d="M110.8,155.4h-8.6v-0.8c0-4.7-4.1-8.4-9.2-8.4H64.1c-5.1,0-9.2,3.8-9.2,8.4v0.8h-8.1c-7.7,0-14,5.7-14,12.9
		v132.7c0,7.1,6.3,12.9,14,12.9h64c7.7,0,14-5.7,14-12.9V168.3C124.8,161.2,118.5,155.4,110.8,155.4z M116.4,300.9
		c0,2.8-2.5,5.2-5.6,5.2H46.8c-3.1,0-5.6-2.3-5.6-5.2V168.3c0-2.8,2.5-5.2,5.6-5.2h16.5v-8.4c0-0.4,0.4-0.8,0.8-0.8H93
		c0.5,0,0.8,0.4,0.8,0.8v8.4h16.9c3.1,0,5.6,2.3,5.6,5.2V300.9z"/>
	<path class="st5" d="M110.2,167H47.8c-1.1,0-2,3.9-2,8.7v117.8c0,4.8,0.9,8.7,2,8.7h62.4c1.1,0,2-3.9,2-8.7V175.7
		C112.2,170.9,111.3,167,110.2,167z"/>
</g>
<g>
	<rect x="201.4" y="259.6" class="st5" width="4.8" height="32.7"/>
	<path class="st5" d="M174.7,289.3H233c0.5,0,0.8,0.2,1.2,0.4l19.8,11.8l-1,2.8l1-2.8c1.2,0.7,1.7,2.5,1.2,4.1
		c-0.4,1.1-1.3,1.8-2.2,1.7h-98.2c-1.3,0-2.4-1.4-2.4-3.1c0-1.3,0.7-2.4,1.6-2.9l19.7-11.8l0,0C174,289.4,174.3,289.3,174.7,289.3
		L174.7,289.3z M232.5,295.3h-57.3l-9.7,5.8h76.6L232.5,295.3z"/>
	<polygon class="st5" points="234.5,166.5 249.8,259 250.4,262.6 247.4,262.6 203.8,262.6 160.2,262.6 157.2,262.6 157.9,259 
		173.1,166.5 177.9,167.7 163.2,256.6 203.8,256.6 244.5,256.6 229.8,167.7 	"/>
	<polygon class="st5" points="216.6,166.9 222.2,259.4 222.4,262.6 219.8,262.6 203.8,262.6 187.9,262.6 185.3,262.6 185.5,259.4 
		191,167.1 195.8,167.5 190.4,256.6 203.8,256.6 217.2,256.6 211.8,167.4 	"/>
	<rect x="152.6" y="183.8" class="st5" width="102.5" height="6.1"/>
	<rect x="146.8" y="205.2" class="st5" width="114" height="6.1"/>
	<rect x="140.8" y="227.8" class="st5" width="126.1" height="6.1"/>
	<path class="st5" d="M158.2,164.1h91.4c1.1,0,2.1,1,2.3,2.3l22.7,92.3l0,0c0.4,1.6-0.3,3.3-1.6,3.8c-0.3,0.1-0.5,0.2-0.8,0.2h-137
		c-1.3,0-2.4-1.4-2.4-3.1c0-0.4,0-0.7,0.2-1.1l22.8-92.3l2.3,0.9l-2.3-0.9C156.2,164.9,157.1,164,158.2,164.1L158.2,164.1z
		 M247.8,170.2h-87.9l-21.3,86.4h130.5L247.8,170.2z"/>
</g>
</svg>
