<?xml version="1.0" encoding="utf-8"?>
<!-- Generator: Adobe Illustrator 22.1.0, SVG Export Plug-In . SVG Version: 6.00 Build 0)  -->
<svg version="1.1" xmlns="http://www.w3.org/2000/svg" xmlns:xlink="http://www.w3.org/1999/xlink" x="0px" y="0px"
	 viewBox="0 0 460 460" style="enable-background:new 0 0 460 460;" xml:space="preserve">
<style type="text/css">
	.st0{fill:#38C47D;}
	.st1{fill:#FFFFFF;}
</style>
<g id="Master_Layer_6">
</g>
<g id="Layer_1">
	<path class="st0" d="M26.8,1h406.5C448,1,460,13,460,27.8v406.5c0,14.8-12,26.8-26.8,26.8H26.8C12,461,0,449,0,434.2V27.8
		C0,13,12,1,26.8,1z"/>
	<path class="st1" d="M232.4,50.3l178.2,58.5l-1.8,5.5l1.8-5.5c3,1,4.7,4.2,3.7,7.3c-0.6,1.9-2.2,3.3-4,3.8l-178.2,58.5l0,0
		c-1.3,0.4-2.7,0.4-3.9-0.1L49.9,119.7l1.8-5.5l-1.8,5.5c-3-1-4.7-4.2-3.7-7.3c0.6-1.9,2.2-3.3,4-3.8l178.2-58.5l0,0
		C229.8,49.7,231.2,49.8,232.4,50.3L232.4,50.3z M390.4,114.2L230.3,61.7L70.1,114.2l160.1,52.5L390.4,114.2z"/>
	<path class="st1" d="M351.8,139l-56.5,18.5l0,0c-1.4,0.5-2.8,0.4-4.1-0.2L123.4,95.4l2-5.4l-2,5.4c-3-1.1-4.5-4.4-3.4-7.4
		c0.7-1.8,2.2-3.1,3.9-3.6l56.5-18.5l0,0c1.4-0.5,2.8-0.4,4.1,0.2L352.3,128l-2,5.4l2-5.4c3,1.1,4.5,4.4,3.4,7.4
		C355.1,137.2,353.6,138.5,351.8,139L351.8,139z M293.6,146l39.3-12.9L182.1,77.5l-39.3,12.9L293.6,146z"/>
	<path class="st1" d="M53.6,339.1c-3-1-6.3,0.6-7.3,3.6c-1,3,0.6,6.3,3.6,7.3l178.6,61.3l0,0c1.3,0.5,2.7,0.4,3.9-0.1L410.7,350
		c3-1,4.6-4.3,3.6-7.3c-1-3-4.3-4.6-7.3-3.6l-176.7,60.6L53.6,339.1z"/>
	<path class="st1" d="M414.6,114.2c0-3.2-2.6-5.8-5.8-5.8c-3.2,0-5.8,2.6-5.8,5.8v230.4c0,3.2,2.6,5.8,5.8,5.8
		c3.2,0,5.8-2.6,5.8-5.8V114.2z"/>
	<path class="st1" d="M57.5,114.2c0-3.2-2.6-5.8-5.8-5.8c-3.2,0-5.8,2.6-5.8,5.8v230.4c0,3.2,2.6,5.8,5.8,5.8c3.2,0,5.8-2.6,5.8-5.8
		V114.2z"/>
	<path class="st1" d="M236,172.8c0-3.2-2.6-5.8-5.8-5.8c-3.2,0-5.8,2.6-5.8,5.8v233.1c0,3.2,2.6,5.8,5.8,5.8c3.2,0,5.8-2.6,5.8-5.8
		V172.8z"/>
	<path class="st1" d="M83.3,313.3c-3-1-6.3,0.6-7.3,3.6c-1,3,0.6,6.3,3.6,7.3l25.7,8.8c3,1,6.3-0.6,7.3-3.6c1-3-0.6-6.3-3.6-7.3
		L83.3,313.3z"/>
	<path class="st1" d="M292.1,146.5l56.5-18.5l0,0c3-1,6.3,0.7,7.3,3.7c0.2,0.6,0.3,1.3,0.3,1.9V189c0,2.7-1.8,4.9-4.3,5.6
		l-56.4,19.7l0,0c-3,1-6.3-0.5-7.3-3.5c-0.2-0.7-0.3-1.3-0.3-2v-56.7C287.7,149.4,289.6,147.1,292.1,146.5L292.1,146.5z
		 M344.6,141.4l-45.3,14.9v44.5l45.3-15.8V141.4z"/>
	<path class="st1" d="M259,363.3l46.4-15.9v-17.2L259,346.1V363.3L259,363.3z M311.1,351.5l1.9,5.4l-57.7,19.8
		c-0.6,0.3-1.4,0.4-2.1,0.4c-3.2,0-5.8-2.6-5.8-5.8v-29.3c-0.1-2.4,1.5-4.7,3.9-5.6l1.9,5.4l-1.9-5.4l57.7-19.8
		c0.6-0.3,1.4-0.4,2.1-0.4c3.2,0,5.8,2.6,5.8,5.8v29.3c0.1,2.4-1.5,4.7-3.9,5.6L311.1,351.5z"/>
</g>
</svg>
