<?xml version="1.0" encoding="utf-8"?>
<!-- Generator: Adobe Illustrator 22.1.0, SVG Export Plug-In . SVG Version: 6.00 Build 0)  -->
<svg version="1.1" xmlns="http://www.w3.org/2000/svg" xmlns:xlink="http://www.w3.org/1999/xlink" x="0px" y="0px"
	 viewBox="0 0 460 460" style="enable-background:new 0 0 460 460;" xml:space="preserve">
<style type="text/css">
	.st0{fill:#2C2D2C;}
	.st1{fill:#FFFFFF;}
</style>
<g id="Master_Layer_6">
</g>
<g id="Layer_1">
	<path class="st0" d="M26.8,0h406.5C448,0,460,12,460,26.8v406.4c0,14.8-12,26.8-26.8,26.8H26.8C12,459.9,0,447.9,0,433.1V26.8
		C0,12,12,0,26.8,0z"/>
	<g>
		<path class="st1" d="M97.2,320.7c-9-10.1-13.7-23.1-13.2-36.6l3.6-98.4c-0.1-12.4,9.4-23.1,22.2-24.5c13.2-1.4,25.1,7.5,27.3,20.4
			c1.7,10.4,3.6,35,4.9,52.4c11.6-2.5,23.9,3,29.3,14.1l29.4,60c5.6,11.4,8.5,24,8.5,36.7v24.8c0,5.8-4.7,10.4-10.4,10.4
			c-5.8,0-10.4-4.7-10.4-10.4v-24.8c0-9.5-2.2-19-6.4-27.5l-29.4-60c-1.3-2.7-4.7-3.9-7.4-2.5c-2.6,1.3-3.8,4.3-2.7,7l13.9,35.8
			c2.1,5.4-0.6,11.4-5.9,13.5c-5.3,2.1-11.4-0.6-13.5-5.9L123,269.2c-2.1-5.5-2.2-11.3-0.7-16.6c-0.6-8.8-3.5-53.6-5.8-67.7
			c-0.3-1.9-2.3-3.3-4.4-3.1c-2.1,0.2-3.7,2-3.6,4.1l-3.6,98.9c-0.3,8.1,2.5,15.9,7.9,22l31.1,34.9c1.7,1.9,2.6,4.4,2.6,6.9v20.9
			c0,5.8-4.7,10.4-10.4,10.4c-5.8,0-10.4-4.7-10.4-10.4v-16.9L97.2,320.7z"/>
		<path class="st1" d="M318,234c1.2-17.4,3.2-42,4.9-52.4c2.1-12.9,14-21.8,27.2-20.4c12.8,1.4,22.3,12.1,22.2,25l3.6,98
			c0.5,13.5-4.2,26.5-13.2,36.6l-28.5,32v16.9c0,5.8-4.7,10.4-10.4,10.4s-10.4-4.7-10.4-10.4v-20.9c0-2.6,0.9-5,2.6-6.9l31.1-34.9
			c5.4-6.1,8.2-13.9,7.9-22l-3.6-98.4c0-2.6-1.6-4.3-3.6-4.6c-2.2-0.2-4.1,1.1-4.4,3.1c-2.3,14.1-5.3,58.9-5.8,67.7
			c1.5,5.3,1.5,11.1-0.7,16.6l-13.9,35.8c-2.1,5.4-8.2,8-13.5,5.9c-5.4-2.1-8-8.1-5.9-13.5l13.9-35.8c1.1-2.7-0.1-5.7-2.7-7
			c-2.7-1.3-6-0.2-7.4,2.5l-29.4,60c-4.2,8.5-6.4,18-6.4,27.5v24.8c0,5.8-4.7,10.4-10.4,10.4c-5.8,0-10.4-4.7-10.4-10.4v-24.8
			c0-12.6,2.9-25.3,8.5-36.7l29.4-60C294.2,237,306.4,231.5,318,234z"/>
		<path class="st1" d="M155.9,186.1l13.1,1.4c2.1,4.9,4.6,9.1,7.5,13.1l-5.3,12.1c-2.1,4.9-0.3,10.6,4.3,13.2l25.5,14.7
			c4.6,2.7,10.5,1.4,13.6-2.9l7.8-10.6c5.1,0.6,10.1,0.6,15.1,0l7.8,10.6c3.1,4.3,9,5.5,13.6,2.9l25.5-14.7
			c4.6-2.7,6.5-8.4,4.3-13.2l-5.3-12c3-4,5.5-8.4,7.5-13.1l13.1-1.4c5.3-0.6,9.3-5,9.3-10.4v-29.5c0-5.3-4-9.8-9.3-10.4l-13.1-1.4
			c-2.1-4.9-4.6-9.1-7.5-13.1l5.3-12.1c2.1-4.9,0.3-10.6-4.3-13.2L259,81.4c-4.6-2.7-10.5-1.4-13.6,2.9l-7.8,10.6
			c-5.1-0.6-10.1-0.6-15.1,0l-7.8-10.6c-3.1-4.3-9-5.5-13.6-2.9l-25.5,14.7c-4.6,2.7-6.5,8.4-4.3,13.2l5.3,12c-3,4-5.5,8.4-7.5,13.1
			l-13.1,1.4c-5.3,0.6-9.3,5-9.3,10.4v29.5C146.6,181.1,150.6,185.5,155.9,186.1z M167.4,155.6l10.2-1.1c4.1-0.4,7.6-3.3,8.8-7.2
			c2-6.5,5.4-12.3,9.8-17.2c2.8-3.1,3.5-7.5,1.9-11.3l-4.1-9.3l9.3-5.4l6,8.2c2.5,3.3,6.6,4.9,10.7,4c6.5-1.4,13.1-1.4,19.8,0.1
			c4,0.9,8.2-0.7,10.7-4l6.1-8.3l9.3,5.4l-4.1,9.4c-1.7,3.8-0.9,8.2,1.9,11.2c4.6,5,7.8,10.6,9.9,17.2c1.2,3.9,4.7,6.8,8.8,7.2
			l10.2,1.1v10.8l-10.2,1.1c-4.1,0.4-7.6,3.3-8.8,7.2c-2,6.5-5.4,12.3-9.8,17.2c-2.8,3.1-3.5,7.5-1.9,11.3l4.1,9.3l-9.3,5.4l-6-8.2
			c-2.5-3.3-6.7-4.9-10.7-4c-6.5,1.4-13.1,1.4-19.8-0.1c-4.1-0.9-8.2,0.7-10.7,4l-6.1,8.3l-9.3-5.4l4.1-9.4
			c1.7-3.8,0.9-8.2-1.9-11.2c-4.6-5-7.8-10.6-9.9-17.2c-1.2-3.9-4.7-6.8-8.8-7.2l-10.2-1.1V155.6z"/>
		<path class="st1" d="M230,192.3c17.3,0,31.3-14,31.3-31.3s-14-31.3-31.3-31.3s-31.3,14-31.3,31.3S212.7,192.3,230,192.3z
			 M230,150.6c5.8,0,10.4,4.7,10.4,10.4c0,5.7-4.7,10.4-10.4,10.4c-5.8,0-10.4-4.7-10.4-10.4C219.6,155.3,224.2,150.6,230,150.6z"/>
	</g>
</g>
</svg>
