<?xml version="1.0" encoding="utf-8"?>
<!-- Generator: Adobe Illustrator 22.1.0, SVG Export Plug-In . SVG Version: 6.00 Build 0)  -->
<svg version="1.1" id="Layer_1" xmlns="http://www.w3.org/2000/svg" xmlns:xlink="http://www.w3.org/1999/xlink" x="0px" y="0px"
	 viewBox="0 0 460 460" style="enable-background:new 0 0 460 460;" xml:space="preserve">
<style type="text/css">
	.st0{fill:#66D100;}
	.st1{fill:#FFFFFF;}
</style>
<path class="st0" d="M49.1,1H411c27,0,49,22,49,49.1V412c0,27.1-22,49.1-49.1,49.1H49.1C22,461,0,439,0,411.9V50.1C0,23,22,1,49.1,1
	z"/>
<g>
	<path class="st1" d="M173.9,132.7h-11.2v-1c0-6.1-5.4-11-12-11h-37.6c-6.6,0-12,4.9-12,11v1H90.5c-10.1,0-18.3,7.5-18.3,16.8v173
		c0,9.2,8.2,16.8,18.3,16.8h83.4c10.1,0,18.3-7.5,18.3-16.8v-173C192.2,140.3,184,132.7,173.9,132.7z M181.3,322.5
		c0,3.7-3.3,6.8-7.4,6.8H90.6c-4,0-7.4-3-7.4-6.8v-173c0-3.7,3.3-6.8,7.4-6.8h21.5v-11c0-0.5,0.5-1,1.1-1h37.6c0.6,0,1.1,0.5,1.1,1
		v11h22.1c4,0,7.4,3,7.4,6.8V322.5z"/>
	<path class="st1" d="M173.2,147.8H91.8c-1.5,0-2.7,5.1-2.7,11.4v153.6c0,6.3,1.2,11.4,2.7,11.4h81.4c1.5,0,2.7-5.1,2.7-11.4V159.2
		C175.9,153,174.7,147.8,173.2,147.8z"/>
</g>
<g>
	<rect x="292.2" y="268.6" class="st1" width="6.3" height="42.6"/>
	<path class="st1" d="M257.3,307.3h75.9c0.6,0,1.1,0.2,1.6,0.6l25.8,15.3l-1.3,3.6l1.3-3.6c1.6,1,2.2,3.3,1.5,5.3
		c-0.5,1.5-1.7,2.3-2.9,2.3h-128c-1.7,0-3.2-1.8-3.2-4c0-1.7,0.9-3.2,2.1-3.7l25.7-15.3l0,0C256.4,307.4,256.9,307.3,257.3,307.3
		L257.3,307.3z M332.6,315.2h-74.7l-12.6,7.5h99.9L332.6,315.2z"/>
	<polygon class="st1" points="335.3,147.2 355.2,267.8 356,272.6 352.1,272.6 295.3,272.6 238.4,272.6 234.6,272.6 235.4,267.8 
		255.3,147.2 261.4,148.8 242.3,264.6 295.3,264.6 348.3,264.6 329.1,148.8 	"/>
	<polygon class="st1" points="312,147.7 319.3,268.3 319.5,272.6 316.1,272.6 295.3,272.6 274.5,272.6 271.1,272.6 271.4,268.3 
		278.6,148 284.9,148.5 277.8,264.6 295.3,264.6 312.7,264.6 305.7,148.3 	"/>
	<rect x="228.5" y="169.7" class="st1" width="133.6" height="7.9"/>
	<rect x="221" y="197.7" class="st1" width="148.6" height="7.9"/>
	<rect x="213.1" y="227.2" class="st1" width="164.4" height="7.9"/>
	<path class="st1" d="M235.8,144h119.2c1.5,0,2.7,1.3,3.1,3l29.7,120.3l0,0c0.5,2.1-0.4,4.4-2.1,5c-0.3,0.1-0.7,0.2-1,0.2H205.9
		c-1.7,0-3.2-1.8-3.2-4c0-0.5,0.1-1,0.2-1.5l29.7-120.3l3,1.2l-3-1.2C233.1,145.1,234.4,144,235.8,144L235.8,144z M352.6,152H238
		l-27.8,112.6h170.2L352.6,152z"/>
</g>
</svg>
