<?xml version="1.0" encoding="utf-8"?>
<!-- Generator: Adobe Illustrator 22.1.0, SVG Export Plug-In . SVG Version: 6.00 Build 0)  -->
<svg version="1.1" id="Layer_1" xmlns="http://www.w3.org/2000/svg" xmlns:xlink="http://www.w3.org/1999/xlink" x="0px" y="0px"
	 viewBox="0 0 460 460" style="enable-background:new 0 0 460 460;" xml:space="preserve">
<style type="text/css">
	.st0{fill:#4099ED;}
	.st1{fill:#FFFFFF;}
</style>
<path class="st0" d="M26.8,0h406.5C448,0,460,12,460,26.8v406.5c0,14.8-12,26.8-26.8,26.8H26.8C12,460,0,448,0,433.2V26.8
	C0,12,12,0,26.8,0z"/>
<path class="st1" d="M202.1,131.2l-2.7,0.4v46.5l2.7,0.4l7.3,1.1l1.9,0.3v-50.2l-1.9,0.3L202.1,131.2z M176.9,165.3l18,6.4V138
	l-18,6.4V165.3z M291.4,205.4l-6.5,32h29.7l-9.1-30.6L291.4,205.4z M281.6,302.2v40.2H405v-40.2H281.6z M168.1,160.1h4.4v-10.5
	h-14.8L168.1,160.1z M308.8,202.6l0.2,0l10.3,35l9.8,33.1l-14.6,26.9H397l-5.3-16.6h-21.8l-0.6-2.2l-0.7-2.3h21.6l-4.6-14.4h-21.2
	l-0.6-2.2l-0.7-2.3h21.1l-4.6-14.4h-20.7l-0.6-2.2l-0.7-2.3h20.6l-4.6-14.4h-20.2l-1.3-4.5H372l-5.1-15.9l37.2-24.2v-53.4l-22.8-8.8
	H229.8l-12.3,7.2l-1.7,1v57.6l1.3,1.6l7.5,9.4L292,201L308.8,202.6z M310.6,141.2l0.1-0.1h5.2l-16.3,29.1h-5.2L310.6,141.2z
	 M248.3,170.1l-0.1,0.1h-5.2l16.3-29.1h5.2L248.3,170.1z M274,170.1l-0.1,0.1h-5.2l16.3-29.1h5.2L274,170.1z M116.7,149.6l10.5,10.5
	h14.1l-10.5-10.5H116.7z M137.2,149.6l10.5,10.5h14.1l-10.5-10.5H137.2z M55,149.6l10.5,10.5h14.1l-10.5-10.5H55z M75.8,149.6
	l10.5,10.5h14.1l-10.5-10.5H75.8z M96.2,149.6l10.5,10.5h14.1l-10.5-10.5H96.2z"/>
</svg>
