<?xml version="1.0" encoding="utf-8"?>
<!-- Generator: Adobe Illustrator 22.1.0, SVG Export Plug-In . SVG Version: 6.00 Build 0)  -->
<svg version="1.1" id="Layer_1" xmlns="http://www.w3.org/2000/svg" xmlns:xlink="http://www.w3.org/1999/xlink" x="0px" y="0px"
	 viewBox="0 0 773.6 156" style="enable-background:new 0 0 773.6 156;" xml:space="preserve">
<style type="text/css">
	.st0{fill:none;}
	.st1{fill:#FFFFFF;}
</style>
<title>03. ADS White Type</title>
<rect x="-153.2" y="-446.1" class="st0" width="1080" height="1080"/>
<path class="st1" d="M47.7,53.5c1.3,0,2.3-1,2.3-2.3c0-0.3-0.1-0.6-0.2-0.8L39.5,24.2H39L28.8,50.4c-0.5,1.2,0.1,2.5,1.3,3
	c0.3,0.1,0.5,0.2,0.8,0.2H47.7z M78.8,77.1c0,4.9-3.9,8.9-8.9,9c-3.8,0-7.2-2.4-8.5-6l-3.7-9.4c-0.3-0.9-1.2-1.5-2.1-1.5H23
	c-0.9,0-1.8,0.6-2.1,1.5l-3.7,9.5c-1.3,3.5-4.6,5.8-8.4,5.9c-4.8,0.1-8.7-3.7-8.9-8.4c0-0.1,0-0.3,0-0.4c0-1.7,0.4-3.4,1.1-5
	L26.9,9.3C29.7,2.6,34.8,0,39.8,0s10,2.7,12.6,9.4l25.3,63C78.4,73.8,78.8,75.4,78.8,77.1"/>
<path class="st1" d="M175.3,10.8v65.3c0,5.5-4.5,10.3-10,10c-5.1-0.2-9.1-4.5-9-9.6V40.2c0-0.9-0.7-1.6-1.6-1.6
	c-0.5,0-1,0.3-1.3,0.7L142,56.5c-2.9,4.2-6.1,6.1-9.9,6.1c-3.5,0-6.7-1.8-9.6-6.1l-11.2-16.7c-0.5-0.7-1.5-0.9-2.2-0.4
	c-0.4,0.3-0.7,0.8-0.7,1.3v35.7c0.2,5.1-3.8,9.4-8.9,9.6c-0.2,0-0.4,0-0.5,0c-5.4,0-9.4-4-9.4-9.6V10.7C89.7,4.5,94.1,0,99.9,0
	c5.1,0,8,2,11.1,6.9L131.5,39c0.5,0.7,1.4,1,2.2,0.5c0.2-0.1,0.4-0.3,0.5-0.5l20.1-32.2c3.1-4.9,6.3-7,10.7-6.9
	C170.7,0.3,175.3,5,175.3,10.8"/>
<path class="st1" d="M232.3,53.5c1.7,0,3.2-1.4,3.2-3.2c0-0.4-0.1-0.8-0.2-1.1l-9.8-25h-0.5l-9.8,25c-0.6,1.6,0.2,3.5,1.8,4.1
	c0.4,0.1,0.8,0.2,1.1,0.2H232.3z M264.7,77.1c0,4.9-3.9,8.9-8.9,9c-3.8,0-7.2-2.4-8.5-6l-3.5-8.8c-0.5-1.2-1.6-2-2.9-2h-31.5
	c-1.3,0-2.5,0.8-3,2l-3.5,9c-1.3,3.5-4.6,5.8-8.4,5.9c-4.8,0.1-8.7-3.7-8.9-8.4c0-0.1,0-0.3,0-0.4c0-1.7,0.4-3.4,1.1-5l25.8-62.9
	c2.8-6.7,7.9-9.4,12.9-9.4s10,2.7,12.6,9.4l25.3,63C264.2,73.8,264.6,75.5,264.7,77.1"/>
<path class="st1" d="M275.6,77.1V11c0-6.1,4.9-11,11-11c0.1,0,0.1,0,0.2,0c3.1,0,6.9,1,10.6,6l34.8,47.4h0.1V9
	c0.2-5.2,4.5-9.2,9.7-9c4.9,0.2,8.9,4.1,9,9v66c0,6.1-4.9,11.1-11,11.1c-0.1,0-0.1,0-0.2,0c-3.1,0-7.2-1.4-10.9-6.4l-34.4-46.4h-0.3
	l0.1,43.8c0,5-4,9-9.5,9c-5,0.2-9.2-3.7-9.4-8.6C275.6,77.3,275.6,77.2,275.6,77.1"/>
<path class="st1" d="M431.7,77c0,4.7-3.8,8.5-8.5,8.5c-0.1,0-0.2,0-0.3,0h-48.2c-8.6,0-13.7-9.8-8.5-16.7l0.1-0.2l37.8-49.8
	c0.3-0.3,0.2-0.8-0.1-1.1c-0.1-0.1-0.3-0.2-0.5-0.2h-30.7c-4.7,0-8.5-3.8-8.5-8.5s3.8-8.5,8.5-8.5h48.3c5.2,0.2,9.4,4.5,9.5,9.7
	c0,2.7-1,5.3-2.7,7.4l-38,49.5c-0.3,0.4-0.2,0.9,0.2,1.1c0.1,0.1,0.3,0.2,0.5,0.2h32.5c4.7-0.1,8.6,3.5,8.7,8.2
	C431.6,76.8,431.7,76.9,431.7,77"/>
<path class="st1" d="M443.1,49.7V9.5c0.2-5.3,4.6-9.5,9.9-9.3c5.1,0.2,9.1,4.2,9.3,9.3v40c0,15,8.5,20.1,17.6,20.1
	c8.7,0,17.6-5.4,17.6-20.1V9c0-5,4.7-9,9.8-9c5-0.1,9.1,3.9,9.2,8.9c0,0,0,0.1,0,0.1v40.7c0,25-18,36.9-36.8,36.9
	S443.1,74.6,443.1,49.7"/>
<path class="st1" d="M533.7,77.1V11c0-6.1,4.9-11,11-11c0.1,0,0.2,0,0.2,0c3.1,0,6.9,1,10.6,6l34.8,47.4h0.1V9
	c0.2-5.2,4.5-9.2,9.7-9c4.9,0.2,8.9,4.1,9,9v66c0,6.1-4.9,11.1-11,11.1c-0.1,0-0.1,0-0.2,0c-3.1,0-7.2-1.4-10.8-6.4l-34.4-46.4h-0.3
	l0.1,43.8c0,5-4,9-9.5,9c-5,0.2-9.2-3.7-9.4-8.6C533.7,77.3,533.7,77.2,533.7,77.1"/>
<path class="st1" d="M689.8,77c0,4.7-3.8,8.5-8.5,8.5c-0.1,0-0.2,0-0.3,0h-48.3c-8.6,0-13.7-9.8-8.5-16.7l0.1-0.2l37.8-49.8
	c0.3-0.3,0.2-0.8-0.1-1.1c-0.1-0.1-0.3-0.2-0.5-0.2h-30.7c-4.7,0-8.5-3.8-8.5-8.5s3.8-8.5,8.5-8.5h48.3c5.2,0.2,9.4,4.5,9.5,9.7
	c0,2.8-0.8,4.7-2.7,7.4l-38,49.5c-0.3,0.3-0.2,0.8,0.1,1.1c0.1,0.1,0.3,0.2,0.5,0.2H681c4.7-0.1,8.6,3.5,8.7,8.2
	C689.7,76.8,689.7,76.9,689.8,77"/>
<path class="st1" d="M741.5,53.5c1.7,0,3-1.4,2.9-3.1c0-0.3-0.1-0.6-0.2-0.9l-9.9-25.3h-0.5l-9.9,25.3c-0.6,1.6,0.3,3.3,1.8,3.8
	c0.3,0.1,0.6,0.2,0.9,0.2H741.5z M773.6,77.1c0,4.9-3.9,8.9-8.9,9c-3.8,0-7.2-2.4-8.5-6l-3.5-9c-0.5-1.1-1.5-1.9-2.8-1.9h-31.8
	c-1.2,0-2.3,0.8-2.8,1.9l-3.5,9.1c-1.3,3.5-4.6,5.8-8.4,5.9c-4.8,0.1-8.7-3.7-8.8-8.5c0-0.1,0-0.2,0-0.4c0-1.7,0.4-3.4,1.1-5
	l25.8-62.9c2.8-6.7,7.9-9.4,12.8-9.4s10,2.7,12.6,9.4l25.3,63C773.2,73.8,773.6,75.4,773.6,77.1"/>
<path class="st1" d="M113.4,126.9c0-7.1-4.7-12.2-12.4-12.2h-5.1v24h5.1C108.6,138.7,113.4,133.7,113.4,126.9 M118.3,126.9
	c0,8.5-6.3,16-16.9,16h-7.8c-1.2,0-2.3-0.9-2.3-2.2c0,0,0-0.1,0-0.1v-27.7c-0.1-1.2,0.9-2.3,2.1-2.3c0,0,0.1,0,0.1,0h7.8
	C112,110.6,118.3,117.8,118.3,126.9"/>
<path class="st1" d="M144.6,140.8c0,1.2-0.9,2.1-2.1,2.1c0,0,0,0-0.1,0h-15.2c-1.2,0-2.3-0.9-2.3-2.2c0,0,0-0.1,0-0.1v-27.7
	c-0.1-1.2,0.9-2.3,2.1-2.3c0,0,0.1,0,0.1,0h14.6c1.2-0.1,2.2,0.8,2.2,2s-0.8,2.2-2,2.2c-0.1,0-0.2,0-0.3,0h-12.2v9.8h10.9
	c1.1,0,2,0.9,2,2s-0.9,2-2,2h-10.9v10.2h12.8C143.6,138.7,144.5,139.6,144.6,140.8C144.6,140.8,144.6,140.8,144.6,140.8"/>
<path class="st1" d="M168.1,133.6c0-3-1.9-5.1-5.9-5.1h-6.7v10.3h6.7C166.2,138.8,168.1,136.6,168.1,133.6 M155.5,114.6v9.9h6
	c3.4,0,5.4-2,5.4-5.1c0-2.8-2-4.8-5.7-4.8L155.5,114.6z M172.9,133.8c0,5.2-3.9,9.1-10.4,9.1h-9.3c-1.2,0-2.2-0.9-2.3-2.2
	c0,0,0-0.1,0-0.1v-27.7c0-1.2,0.9-2.3,2.1-2.3c0,0,0.1,0,0.1,0h8.5c6.1,0,10,3.6,10,8.6c0.1,2.9-1.4,5.7-4,7.1
	C170.8,127.5,172.9,130.5,172.9,133.8"/>
<path class="st1" d="M201.5,112.6c0.1,1.1-0.8,2-1.9,2.1c-0.1,0-0.1,0-0.2,0h-8.6v26.1c-0.1,1.3-1.2,2.3-2.5,2.2
	c-1.2-0.1-2.1-1-2.2-2.2v-26.1h-8.7c-1.2-0.1-2-1.1-2-2.2c0.1-1,0.9-1.9,1.9-2h22.1c1.1,0,2,0.8,2.1,1.9
	C201.5,112.5,201.5,112.6,201.5,112.6"/>
<path class="st1" d="M215.3,140.4c-0.8-0.5-1.4-1.3-1.4-2.3c-0.1-1.1,0.8-2,1.9-2.1c0.1,0,0.1,0,0.2,0c0.8,0.1,1.5,0.4,2.1,0.9
	c2,1.4,4.4,2.1,6.9,2.1c3.4,0,5.7-1.9,5.7-4.7c0-3.1-2.9-4.4-6.5-6c-5.1-2.2-8.8-4.5-8.8-9.5s4-8.8,10.1-8.8
	c2.4-0.1,4.8,0.4,6.9,1.5c1.1,0.5,1.9,1.2,1.9,2.3c0.1,1.1-0.8,2.1-1.9,2.1c0,0-0.1,0-0.1,0c-0.6-0.1-1.2-0.2-1.7-0.5
	c-1.6-0.8-3.3-1.2-5-1.2c-3.6,0-5.5,2-5.5,4.3c0,3.1,3.5,4.4,7,6c4.5,2,8.3,4.3,8.3,9.5c0,5.8-4.7,9.2-10.6,9.2
	C221.3,143.4,218,142.4,215.3,140.4"/>
<path class="st1" d="M267.5,126.8c0-7.8-5.5-12.4-11.5-12.4s-11.5,4.6-11.5,12.4s5.6,12.3,11.5,12.3S267.5,134.5,267.5,126.8
	 M239.7,126.8c0-9.6,7.2-16.7,16.3-16.7s16.4,7.1,16.4,16.7c0.3,8.9-6.8,16.3-15.7,16.6c-0.2,0-0.5,0-0.7,0
	C246.9,143.4,239.7,136.4,239.7,126.8"/>
<path class="st1" d="M297,140.8c0,1.1-0.9,2.1-2,2.1c0,0-0.1,0-0.1,0h-13.6c-1.2,0-2.3-1-2.3-2.2c0,0,0-0.1,0-0.1v-27.9
	c0-1.2,0.9-2.3,2.2-2.3c0.1,0,0.1,0,0.2,0c1.3,0,2.3,1,2.3,2.2c0,0,0,0.1,0,0.1v26.1h11.2C296,138.7,297,139.6,297,140.8
	C297,140.8,297,140.8,297,140.8"/>
<path class="st1" d="M300.5,129.7v-17.1c0-1.3,1-2.3,2.3-2.3c0,0,0,0,0.1,0c1.2,0,2.3,1,2.3,2.2c0,0,0,0.1,0,0.1v17
	c0,6.2,3.4,9.5,8.7,9.5c5.1,0,8.6-3.4,8.6-9.5v-17.1c0-1.3,1-2.3,2.3-2.3c0,0,0,0,0.1,0c1.2,0,2.2,1,2.2,2.2c0,0,0,0.1,0,0.1v17.1
	c0,8.1-5.4,13.7-13.2,13.7C305.8,143.4,300.5,137.9,300.5,129.7"/>
<path class="st1" d="M358.1,112.6c0.1,1.1-0.8,2-1.9,2.1c-0.1,0-0.1,0-0.2,0h-8.7v26.1c0,1.3-1,2.3-2.3,2.3c-1.3,0-2.3-1-2.3-2.3
	v-26.1H334c-1.2-0.1-2-1.1-2-2.2c0.1-1,0.9-1.9,2-2h22.1C357.2,110.5,358.1,111.4,358.1,112.6C358.1,112.6,358.1,112.6,358.1,112.6"
	/>
<path class="st1" d="M363.3,140.8v-28.2c0-1.3,1-2.3,2.2-2.3c0,0,0.1,0,0.1,0c1.2,0,2.3,0.9,2.3,2.2c0,0.1,0,0.1,0,0.2v28.2
	c0,1.2-1,2.3-2.2,2.3c0,0-0.1,0-0.1,0C364.4,143.1,363.3,142.1,363.3,140.8C363.3,140.9,363.3,140.8,363.3,140.8"/>
<path class="st1" d="M402.4,126.8c0-7.8-5.5-12.4-11.5-12.4s-11.5,4.6-11.5,12.4s5.6,12.3,11.5,12.3S402.4,134.5,402.4,126.8
	 M374.6,126.8c0-9.6,7.2-16.7,16.3-16.7s16.4,7.1,16.4,16.7c0.3,8.9-6.8,16.3-15.7,16.6c-0.2,0-0.5,0-0.7,0
	C381.8,143.4,374.6,136.4,374.6,126.8"/>
<path class="st1" d="M413.9,140.9v-27.5c-0.1-1.7,1.2-3,2.9-3.1c0.1,0,0.1,0,0.2,0c1.3,0,2.5,0.8,3.2,1.9l16,23.5h0.1v-23.2
	c-0.1-1.3,0.9-2.4,2.1-2.4c1.3-0.1,2.4,0.9,2.4,2.1c0,0.1,0,0.2,0,0.3V140c0,1.7-1.3,3-2.9,3.1c0,0-0.1,0-0.1,0
	c-1.4,0-2.6-0.8-3.2-2l-16-23.4h-0.1v23.1c0,1.2-1,2.2-2.3,2.2c0,0,0,0,0,0C414.9,143.1,413.9,142.1,413.9,140.9
	C413.9,140.9,413.9,140.9,413.9,140.9"/>
<path class="st1" d="M448.3,140.4c-0.8-0.5-1.4-1.3-1.4-2.3c-0.1-1.1,0.8-2,1.9-2.1c0.1,0,0.1,0,0.2,0c0.8,0.1,1.5,0.4,2.1,0.9
	c2,1.4,4.4,2.1,6.8,2.1c3.4,0,5.7-1.9,5.7-4.7c0-3.1-2.9-4.4-6.5-6c-5.1-2.2-8.8-4.5-8.8-9.5s4-8.8,10.1-8.8
	c2.4-0.1,4.8,0.4,6.9,1.5c1.1,0.5,1.8,1.2,1.8,2.3c0.1,1.1-0.8,2.1-1.9,2.1c0,0-0.1,0-0.1,0c-0.6-0.1-1.2-0.2-1.7-0.5
	c-1.6-0.8-3.3-1.2-5-1.2c-3.6,0-5.5,2-5.5,4.3c0,3.1,3.5,4.4,6.9,6c4.5,2,8.3,4.3,8.3,9.5c0,5.8-4.7,9.2-10.6,9.2
	C454.4,143.4,451.1,142.4,448.3,140.4"/>
<path class="st1" d="M491.7,150c-5-5.4-7.8-12.6-7.7-20c-0.1-7.4,2.6-14.5,7.7-19.9c0.4-0.5,1-0.9,1.7-1c0.9,0,1.6,0.7,1.7,1.6
	c0,0,0,0.1,0,0.1c-0.1,0.7-0.4,1.3-0.9,1.8c-3.9,4.9-6,11-5.9,17.3c-0.1,6.3,2,12.5,5.9,17.5c0.5,0.5,0.8,1.1,0.9,1.8
	c0,0.9-0.6,1.7-1.5,1.7c0,0-0.1,0-0.1,0C492.7,150.8,492.1,150.5,491.7,150"/>
<path class="st1" d="M516.7,121c0-3.7-2.6-6.3-6.8-6.3h-4.6v12.7h4.6C514.1,127.4,516.7,124.9,516.7,121 M521.5,121
	c0,5.9-4.3,10.5-11.2,10.5h-5v9.2c0,1.3-0.9,2.3-2.2,2.4c0,0-0.1,0-0.1,0c-1.2,0-2.3-0.9-2.3-2.2c0-0.1,0-0.1,0-0.2v-27.9
	c0-1.3,1-2.3,2.2-2.3c0,0,0,0,0.1,0h2.4l0,0h5C517.2,110.5,521.5,115.2,521.5,121"/>
<path class="st1" d="M550.2,112.6c0.1,1.1-0.8,2-1.9,2.1c-0.1,0-0.1,0-0.2,0h-8.7v26.1c0,1.3-1.1,2.3-2.3,2.3c-1.3,0-2.3-1-2.3-2.3
	v-26.1h-8.7c-1.2-0.1-2-1.1-2-2.2c0.1-1,0.9-1.9,2-2h22.1C549.3,110.5,550.2,111.4,550.2,112.6C550.2,112.6,550.2,112.6,550.2,112.6
	"/>
<path class="st1" d="M578.3,112.5c0,0.5-0.2,1-0.5,1.5l-10.2,15.8v11c-0.1,1.3-1.2,2.3-2.5,2.2c-1.2-0.1-2.1-1-2.2-2.2v-11
	l-10.1-15.7c-0.3-0.4-0.5-1-0.5-1.5c-0.1-1.2,0.9-2.2,2.1-2.2c0.1,0,0.1,0,0.2,0c0.8,0,1.6,0.4,1.9,1.2c2.9,4.7,6,9.3,8.8,14
	c2.9-4.7,5.8-9.3,8.8-13.9c0.4-0.8,1.2-1.3,2.1-1.3C577.4,110.3,578.3,111.3,578.3,112.5"/>
<path class="st1" d="M584,110.1c5,5.4,7.8,12.6,7.7,20c0.1,7.4-2.6,14.5-7.7,19.9c-0.4,0.5-1,0.9-1.7,1c-0.9,0-1.6-0.7-1.7-1.6
	c0,0,0-0.1,0-0.1c0.1-0.7,0.4-1.3,0.9-1.8c3.9-4.9,6-11,5.9-17.3c0.1-6.3-2-12.5-5.9-17.5c-0.5-0.5-0.8-1.1-0.9-1.8
	c0-0.9,0.6-1.7,1.5-1.7c0,0,0.1,0,0.1,0C583,109.1,583.6,109.5,584,110.1"/>
<path class="st1" d="M627.5,140.8c0,1.1-0.9,2.1-2,2.1c0,0-0.1,0-0.1,0h-13.6c-1.2,0-2.3-1-2.3-2.2c0,0,0-0.1,0-0.1v-27.9
	c0-1.2,0.9-2.3,2.2-2.3c0.1,0,0.1,0,0.2,0c1.3,0,2.3,1,2.3,2.2c0,0,0,0.1,0,0.1v26.1h11.2C626.5,138.7,627.5,139.6,627.5,140.8
	C627.5,140.8,627.5,140.8,627.5,140.8"/>
<path class="st1" d="M652.1,112.6c0.1,1.1-0.8,2-1.9,2.1c-0.1,0-0.1,0-0.2,0h-8.7v26.1c-0.1,1.3-1.2,2.3-2.5,2.2
	c-1.2-0.1-2.1-1-2.2-2.2v-26.1H628c-1.2-0.1-2-1.1-2-2.2c0.1-1,0.9-1.9,1.9-2h22.1c1.1,0,2,0.8,2.1,1.9
	C652.1,112.5,652.1,112.6,652.1,112.6"/>
<path class="st1" d="M679.5,126.9c0-7.1-4.7-12.2-12.4-12.2H662v24h5.1C674.6,138.7,679.5,133.7,679.5,126.9 M684.3,126.9
	c0,8.5-6.3,16-16.9,16h-7.8c-1.2,0-2.3-0.9-2.3-2.2c0,0,0-0.1,0-0.1v-27.7c-0.1-1.2,0.9-2.3,2.1-2.3c0,0,0.1,0,0.1,0h7.8
	C678,110.6,684.3,117.8,684.3,126.9"/>
</svg>
