<svg id="Layer_1" data-name="Layer 1" xmlns="http://www.w3.org/2000/svg" xmlns:xlink="http://www.w3.org/1999/xlink" viewBox="0 0 230 230"><defs><style>.cls-1{fill:url(#linear-gradient);}.cls-2{fill:url(#linear-gradient-2);}.cls-3{fill:url(#linear-gradient-3);}.cls-4{fill:url(#linear-gradient-4);}.cls-5{fill:url(#linear-gradient-5);}.cls-6{fill:url(#linear-gradient-6);}</style><linearGradient id="linear-gradient" x1="5.61" y1="114.74" x2="138.36" y2="114.74" gradientUnits="userSpaceOnUse"><stop offset="0" stop-color="#0d9848"/><stop offset="1" stop-color="#b3d234"/></linearGradient><linearGradient id="linear-gradient-2" x1="126.05" y1="122.58" x2="224.39" y2="122.58" gradientUnits="userSpaceOnUse"><stop offset="0" stop-color="#70cbda"/><stop offset="1" stop-color="#3f7cbd"/></linearGradient><linearGradient id="linear-gradient-3" x1="124.48" y1="12.34" x2="143.09" y2="12.34" xlink:href="#linear-gradient"/><linearGradient id="linear-gradient-4" x1="124.48" y1="54.26" x2="143.09" y2="54.26" xlink:href="#linear-gradient"/><linearGradient id="linear-gradient-5" x1="121.33" y1="182.98" x2="139.93" y2="182.98" xlink:href="#linear-gradient-2"/><linearGradient id="linear-gradient-6" x1="128.34" y1="217.66" x2="146.94" y2="217.66" xlink:href="#linear-gradient-2"/></defs><title>Artboard 2</title><path class="cls-1" d="M97.46,223.4a5,5,0,0,1-.77-.06A109.4,109.4,0,0,1,115,6.09a110.57,110.57,0,0,1,19.6,1.75,4.57,4.57,0,1,1-1.63,9A100.26,100.26,0,0,0,92.88,213.27V92.61H64.69a19.79,19.79,0,0,1-13.3-6.42c-3.61-4.11-5.15-9.65-4.6-16.44,1.06-13,9.37-20.31,23-20.22H131a4.57,4.57,0,1,1,0,9.14H69.66C61,58.61,56.57,62.33,55.91,70.49c-.35,4.24.45,7.49,2.36,9.68a10.82,10.82,0,0,0,6.66,3.29H97.46A4.58,4.58,0,0,1,102,88v130.8a4.57,4.57,0,0,1-4.57,4.57Z"/><path class="cls-2" d="M138.43,222.24a4.58,4.58,0,0,1-1-9A100.27,100.27,0,0,0,176.57,36.35v37.2c.05.63.4,8.82-4.93,14.49-3,3.24-7.33,4.95-12.43,4.95-9,0-18.61.33-24,.56V183a4.58,4.58,0,1,1-9.15,0V89.18a4.57,4.57,0,0,1,4.34-4.57c.15,0,15.14-.77,28.82-.77,2.58,0,4.46-.67,5.77-2.06,2.65-2.82,2.45-7.89,2.45-7.94V27.49a4.57,4.57,0,0,1,7.06-3.83,109.41,109.41,0,0,1-35,198.46A4.44,4.44,0,0,1,138.43,222.24Z"/><circle class="cls-3" cx="133.79" cy="12.34" r="9.3"/><circle class="cls-4" cx="133.79" cy="54.26" r="9.3"/><circle class="cls-5" cx="130.63" cy="182.98" r="9.3"/><circle class="cls-6" cx="137.64" cy="217.66" r="9.3"/></svg>